<?xml version="1.0" encoding="UTF-8"?>
<!DOCTYPE svg PUBLIC "-//W3C//DTD SVG 1.1//EN" "http://www.w3.org/Graphics/SVG/1.1/DTD/svg11.dtd">
<svg version="1.1" xmlns="http://www.w3.org/2000/svg" xmlns:xlink="http://www.w3.org/1999/xlink" x="0" y="0" width="303.596" height="392.541" viewBox="0, 0, 303.596, 392.541">
  <defs>
    <linearGradient id="Gradient_1" gradientUnits="userSpaceOnUse" x1="88.222" y1="297.091" x2="401.177" y2="297.091" gradientTransform="matrix(0.75, 0, 0, 0.75, 640.528, 600.994)">
      <stop offset="0" stop-color="#858685"/>
      <stop offset="0.489" stop-color="#4F504F"/>
      <stop offset="1" stop-color="#363736"/>
    </linearGradient>
    <linearGradient id="Gradient_2" gradientUnits="userSpaceOnUse" x1="172.983" y1="235.474" x2="311.317" y2="26.192" gradientTransform="matrix(0.75, 0, 0, 0.75, 640.528, 600.994)">
      <stop offset="0" stop-color="#92938D"/>
      <stop offset="0.034" stop-color="#92938D"/>
      <stop offset="0.219" stop-color="#A7AAAD"/>
      <stop offset="0.719" stop-color="#5F686A"/>
      <stop offset="1" stop-color="#838B8D"/>
    </linearGradient>
  </defs>
  <g id="layer1">
    <path d="M242.762,357.662 C231.593,334.606 239.156,310.812 224.021,289.919 C208.896,269.02 204.256,259.576 197.057,249.651 C189.849,239.727 187.992,215.701 187.634,201.294 C187.539,197.829 187.133,192.308 186.547,185.927 L190.397,187.852 L233.855,187.852 C233.855,187.852 207.093,184.635 197.711,166.141 C189.221,149.355 182.028,144.135 182.028,144.135 C181.496,139.642 181.148,136.8 181.148,136.8 C181.148,136.8 188.356,123.11 184.754,118.422 C181.148,113.739 179.344,105.454 175.379,97.164 C171.418,88.885 173.585,93.563 168.533,89.238 C163.487,84.92 161.34,88.521 152.333,85.278 C143.337,82.035 144.402,85.278 144.402,85.278 C144.402,85.278 136.118,95.002 134.672,99.69 C133.238,104.373 129.626,109.062 128.545,117.346 C127.701,123.885 130.217,130.514 131.319,133.018 C124.742,137.854 115.873,149.192 110.325,156.533 C115.688,159.428 120.909,161.832 125.744,164.237 C128.255,175.496 132.553,190.547 136.835,205.254 C144.402,231.194 132.125,229.781 123.867,262.545 C112.097,309.193 95.105,355.959 95.105,355.959 C95.105,355.959 101.582,368.831 111.311,369.907 C121.041,370.988 125.375,370.988 131.809,378.556 C138.259,386.117 157.37,380.358 168.18,388.29 C178.991,396.205 187.634,385.764 200.606,382.516 C213.569,379.278 226.9,378.196 237.716,382.874 C248.516,387.557 271.94,388.29 271.94,388.29 C271.94,388.29 253.926,380.718 242.762,357.662" fill="#343534" id="path188650"/>
    <path d="M242.762,357.662 L243.977,357.073 C238.524,345.828 237.616,334.306 236.219,322.816 C235.516,317.075 234.687,311.349 233.06,305.702 C231.434,300.057 229.001,294.492 225.114,289.127 C217.57,278.703 212.649,271.149 208.706,264.945 C204.763,258.745 201.789,253.877 198.15,248.859 C196.48,246.565 195.048,243.323 193.884,239.537 C192.133,233.857 190.966,226.964 190.214,220.16 C189.46,213.355 189.117,206.633 188.984,201.26 L188.984,201.257 C188.886,197.731 188.479,192.201 187.891,185.803 L186.547,185.927 L185.943,187.135 L189.793,189.059 C189.983,189.154 190.184,189.202 190.396,189.202 L233.855,189.202 C234.568,189.202 235.16,188.643 235.203,187.932 C235.246,187.221 234.724,186.596 234.016,186.511 L234.004,186.51 C233.67,186.47 227.044,185.605 219.437,182.532 C215.634,180.997 211.589,178.912 207.959,176.128 C204.327,173.342 201.115,169.866 198.915,165.531 C190.339,148.572 182.999,143.169 182.821,143.042 L182.028,144.135 L183.368,143.976 C182.836,139.481 182.488,136.637 182.488,136.635 L181.147,136.8 L182.341,137.428 C182.356,137.4 183.529,135.174 184.711,132.174 C185.302,130.674 185.895,128.979 186.346,127.256 C186.796,125.532 187.11,123.782 187.111,122.131 C187.111,121.305 187.032,120.502 186.835,119.736 C186.637,118.971 186.316,118.239 185.824,117.6 L185.824,117.598 C184.183,115.479 182.846,112.337 181.463,108.668 C180.074,105 178.619,100.812 176.596,96.582 C175.604,94.509 174.997,93.247 174.533,92.395 C174.183,91.758 173.911,91.324 173.532,90.941 C173.251,90.656 172.911,90.453 172.656,90.335 C172.267,90.153 172.035,90.08 171.568,89.811 C171.107,89.545 170.432,89.086 169.411,88.213 C168.048,87.043 166.781,86.34 165.533,85.963 C164.599,85.677 163.701,85.576 162.824,85.534 C161.503,85.471 160.216,85.524 158.649,85.374 C157.083,85.225 155.223,84.882 152.791,84.008 C149.709,82.902 147.725,82.493 146.279,82.487 C145.762,82.487 145.308,82.542 144.895,82.662 C144.28,82.834 143.734,83.199 143.413,83.676 C143.089,84.15 143.012,84.646 143.012,84.99 C143.014,85.369 143.092,85.612 143.121,85.704 L144.402,85.278 L143.374,84.402 C143.363,84.417 141.277,86.863 138.997,89.919 C137.856,91.448 136.667,93.127 135.657,94.746 C134.647,96.372 133.814,97.909 133.382,99.293 L133.382,99.295 C132.726,101.454 131.486,103.776 130.239,106.628 C128.995,109.48 127.766,112.869 127.207,117.171 L127.206,117.173 C127.08,118.147 127.024,119.118 127.024,120.074 C127.033,125.972 129.098,131.308 130.083,133.563 L131.319,133.018 L130.519,131.931 C127.069,134.473 123.181,138.564 119.41,142.958 C115.648,147.35 112.03,152.039 109.248,155.719 C109.009,156.034 108.922,156.433 109.006,156.82 C109.09,157.206 109.336,157.533 109.684,157.721 C115.094,160.641 120.333,163.053 125.144,165.446 L125.744,164.237 L124.426,164.531 C126.952,175.856 131.255,190.917 135.538,205.632 C137.179,211.252 137.852,215.505 137.852,219.042 C137.849,222.185 137.329,224.776 136.436,227.363 C135.1,231.237 132.867,235.113 130.331,240.441 C127.799,245.77 124.996,252.536 122.558,262.215 C116.684,285.494 109.502,308.824 103.789,326.326 C100.933,335.078 98.443,342.373 96.669,347.479 C95.782,350.033 95.074,352.039 94.587,353.405 C94.343,354.089 94.156,354.612 94.029,354.965 C93.902,355.318 93.837,355.497 93.837,355.497 C93.71,355.846 93.733,356.234 93.899,356.565 C93.931,356.623 95.585,359.917 98.529,363.401 C100.003,365.143 101.8,366.935 103.91,368.386 C106.016,369.835 108.45,370.948 111.163,371.249 C113.605,371.52 115.692,371.722 117.521,371.986 C120.271,372.383 122.408,372.91 124.433,373.974 C126.458,375.039 128.436,376.674 130.78,379.43 L130.781,379.432 C131.723,380.535 132.886,381.381 134.175,382.026 C136.436,383.155 139.085,383.707 141.928,384.068 C146.192,384.602 150.927,384.69 155.42,385.288 C159.918,385.881 164.128,386.985 167.381,389.379 C170.424,391.617 173.463,392.549 176.413,392.541 C178.465,392.54 180.458,392.108 182.419,391.452 C185.365,390.463 188.264,388.972 191.299,387.53 C194.334,386.085 197.499,384.685 200.934,383.825 C207.632,382.151 214.406,381.069 220.818,381.07 C226.678,381.069 232.228,381.971 237.179,384.113 C240.028,385.346 243.589,386.281 247.36,387.021 C258.659,389.229 271.86,389.636 271.897,389.639 C272.549,389.66 273.12,389.215 273.259,388.578 C273.398,387.94 273.064,387.298 272.463,387.046 L272.332,387.357 L272.465,387.046 L272.463,387.046 L272.332,387.357 L272.465,387.046 C272.414,387.025 268,385.143 262.251,380.463 C256.501,375.78 249.417,368.307 243.977,357.073 L242.762,357.662 L241.546,358.25 C247.229,369.984 254.665,377.796 260.688,382.671 C266.714,387.547 271.328,389.496 271.417,389.535 L271.94,388.29 L271.982,386.94 C271.982,386.94 271.896,386.938 271.725,386.932 C270.44,386.884 264.509,386.631 257.665,385.845 C254.245,385.454 250.595,384.928 247.195,384.234 C243.797,383.542 240.643,382.674 238.253,381.636 C232.874,379.31 226.951,378.37 220.818,378.37 C214.103,378.371 207.128,379.495 200.279,381.206 C195.312,382.452 191.038,384.677 187.141,386.53 C185.194,387.46 183.342,388.296 181.562,388.891 C179.783,389.488 178.082,389.841 176.413,389.841 C174.016,389.832 171.647,389.145 168.977,387.201 C166.056,385.059 162.638,383.881 159.113,383.164 C153.82,382.092 148.227,382.033 143.442,381.525 C141.052,381.274 138.871,380.911 137.064,380.302 C135.251,379.692 133.839,378.855 132.835,377.68 L132.837,377.681 C131.181,375.733 129.631,374.237 128.062,373.078 C125.711,371.335 123.318,370.385 120.667,369.805 C118.011,369.221 115.091,368.97 111.46,368.565 C109.307,368.328 107.283,367.428 105.439,366.161 C102.675,364.265 100.36,361.547 98.767,359.305 C97.97,358.186 97.35,357.186 96.933,356.473 C96.724,356.116 96.566,355.83 96.461,355.636 C96.41,355.539 96.37,355.466 96.345,355.417 L96.318,355.365 L96.311,355.352 L95.105,355.959 L96.374,356.42 C96.382,356.396 113.383,309.61 125.176,262.875 C128.371,250.211 132.13,242.786 135.157,236.755 C136.67,233.737 138.012,231.06 138.987,228.247 C139.962,225.436 140.554,222.489 140.551,219.042 C140.551,215.158 139.816,210.653 138.13,204.876 C133.85,190.176 129.557,175.137 127.062,163.944 C126.973,163.548 126.708,163.209 126.345,163.029 C121.484,160.611 116.282,158.214 110.966,155.345 L110.325,156.533 L111.402,157.347 C114.168,153.687 117.758,149.036 121.461,144.714 C125.157,140.396 128.992,136.4 132.118,134.107 C132.627,133.732 132.809,133.053 132.554,132.475 C131.642,130.417 129.716,125.334 129.725,120.074 C129.725,119.223 129.774,118.367 129.884,117.519 L129.883,117.52 C130.405,113.538 131.523,110.441 132.714,107.707 C133.901,104.973 135.184,102.61 135.963,100.086 L135.962,100.088 C136.253,99.127 136.997,97.692 137.947,96.175 C139.372,93.889 141.252,91.368 142.767,89.435 C143.525,88.467 144.193,87.644 144.67,87.064 C144.909,86.775 145.1,86.546 145.231,86.39 C145.296,86.312 145.346,86.253 145.38,86.212 L145.43,86.154 C145.737,85.793 145.832,85.302 145.683,84.853 L145.27,84.99 L145.712,84.99 C145.71,84.949 145.712,84.944 145.683,84.853 L145.27,84.99 L145.712,84.99 L145.363,84.99 L145.688,85.113 L145.712,84.99 L145.363,84.99 L145.688,85.113 L145.294,84.963 L145.609,85.243 L145.688,85.113 L145.294,84.963 L145.609,85.243 L145.432,85.086 L145.56,85.287 L145.609,85.243 L145.432,85.086 L145.56,85.287 L145.564,85.285 C145.59,85.27 145.802,85.186 146.279,85.187 C147.182,85.18 148.96,85.492 151.876,86.548 C154.217,87.392 156.152,87.801 157.793,87.998 C159.023,88.146 160.085,88.176 161.011,88.191 C162.405,88.21 163.46,88.215 164.423,88.456 C165.386,88.699 166.347,89.151 167.655,90.264 C168.971,91.39 169.874,91.978 170.549,92.332 C171.052,92.594 171.412,92.726 171.528,92.789 C171.619,92.84 171.587,92.817 171.646,92.874 C171.73,92.956 171.973,93.304 172.367,94.072 C172.765,94.837 173.326,96.003 174.16,97.747 C176.103,101.806 177.532,105.907 178.938,109.623 C180.35,113.34 181.718,116.682 183.684,119.245 L183.683,119.244 C183.911,119.541 184.094,119.926 184.22,120.413 C184.347,120.898 184.412,121.481 184.411,122.131 C184.414,123.433 184.15,124.993 183.735,126.572 C183.114,128.944 182.165,131.364 181.371,133.173 C180.974,134.079 180.617,134.834 180.36,135.36 C180.232,135.622 180.129,135.828 180.059,135.966 C180.023,136.036 179.996,136.088 179.978,136.122 L179.953,136.171 C179.824,136.415 179.773,136.689 179.807,136.964 C179.808,136.965 179.894,137.673 180.047,138.944 C180.201,140.216 180.421,142.048 180.687,144.294 C180.731,144.667 180.931,145.006 181.234,145.227 L181.52,144.835 L181.231,145.225 L181.234,145.227 L181.52,144.835 L181.231,145.225 C181.277,145.26 188.234,150.398 196.507,166.75 C198.964,171.594 202.547,175.414 206.501,178.411 C212.436,182.907 219.21,185.581 224.51,187.153 C229.809,188.723 233.64,189.185 233.695,189.192 L233.855,187.852 L233.855,186.501 L190.714,186.501 L187.15,184.719 C186.711,184.5 186.191,184.535 185.785,184.812 C185.38,185.089 185.158,185.561 185.203,186.05 C185.787,192.415 186.191,197.927 186.284,201.331 L186.284,201.327 C186.465,208.571 187.019,218.224 188.443,227.361 C189.155,231.93 190.084,236.371 191.304,240.332 C192.527,244.293 194.03,247.775 195.964,250.444 C199.523,255.35 202.469,260.167 206.427,266.395 C210.385,272.62 215.347,280.237 222.927,290.71 C226.607,295.792 228.904,301.037 230.466,306.45 C232.809,314.566 233.467,323.068 234.575,331.776 C235.686,340.478 237.259,349.397 241.546,358.251 L242.762,357.662" fill="#1A1919" id="path188652"/>
    <path d="M129.136,152.747 C124.131,149.772 118.325,149.108 111.807,152.277 C104.356,162.117 101.466,168.831 98.75,176.313 C95.016,186.565 107.562,202.106 103.997,216.523 C95.105,252.494 80.399,282.774 80.399,282.774 C80.399,282.774 99.525,257.562 106.776,230.171 C106.776,230.171 103.343,271.963 97.88,287.098 L110.51,250.289 C110.51,250.289 112.466,263.562 108.2,279.172 C108.2,279.172 117.27,265.641 118.183,245.391 L120.667,278.882 L142.577,225.731 C142.577,225.731 146.881,188.721 146.153,177.858 C145.193,174.969 144.043,172.063 142.688,169.279" fill="#343534" id="path188654"/>
    <path d="M129.825,151.586 C126.924,149.859 123.702,148.836 120.242,148.839 C117.362,148.837 114.335,149.544 111.216,151.063 C111.024,151.156 110.86,151.292 110.731,151.462 C103.201,161.394 100.207,168.324 97.481,175.853 L97.481,175.851 C96.924,177.381 96.698,178.989 96.698,180.635 C96.699,182.947 97.138,185.339 97.77,187.801 C98.722,191.493 100.117,195.352 101.259,199.269 C102.404,203.184 103.293,207.147 103.291,210.998 C103.291,212.756 103.108,214.49 102.686,216.2 C98.261,234.102 92.381,250.614 87.609,262.639 C85.222,268.653 83.114,273.544 81.603,276.93 C80.847,278.623 80.241,279.939 79.825,280.831 C79.616,281.277 79.456,281.616 79.347,281.844 C79.239,282.071 79.184,282.184 79.184,282.184 C78.881,282.807 79.102,283.562 79.692,283.924 C80.282,284.286 81.055,284.141 81.474,283.59 C81.497,283.558 86.308,277.217 92.033,267.425 C97.759,257.632 104.405,244.395 108.081,230.517 L106.776,230.171 L105.43,230.061 C105.43,230.062 105.377,230.707 105.273,231.876 C104.909,235.967 103.92,246.416 102.429,257.478 C101.684,263.008 100.813,268.692 99.833,273.801 C98.856,278.908 97.762,283.451 96.61,286.639 L97.88,287.098 L99.157,287.536 L111.787,250.727 L110.51,250.289 L109.174,250.486 L109.177,250.512 C109.22,250.813 109.607,253.709 109.607,258.204 C109.608,263.433 109.082,270.825 106.897,278.816 C106.724,279.453 107.038,280.125 107.638,280.4 C108.239,280.674 108.953,280.472 109.322,279.924 C109.395,279.804 118.593,266.082 119.531,245.451 L118.183,245.391 L116.837,245.49 L119.32,278.982 C119.366,279.608 119.834,280.116 120.453,280.215 C121.073,280.314 121.675,279.976 121.915,279.396 L143.825,226.245 C143.874,226.128 143.904,226.012 143.918,225.887 C143.919,225.881 144.834,218.009 145.751,208.452 C146.665,198.887 147.583,187.666 147.585,180.847 C147.585,179.691 147.559,178.659 147.499,177.768 C147.492,177.656 147.469,177.54 147.434,177.433 C146.458,174.494 145.287,171.534 143.902,168.688 C143.576,168.018 142.768,167.739 142.097,168.065 C141.427,168.391 141.148,169.199 141.474,169.869 C142.799,172.592 143.928,175.443 144.871,178.284 L146.152,177.858 L144.805,177.948 C144.859,178.752 144.885,179.733 144.885,180.847 C144.887,187.451 143.976,198.672 143.062,208.194 C142.606,212.958 142.149,217.305 141.807,220.46 C141.636,222.037 141.493,223.317 141.393,224.202 C141.293,225.087 141.237,225.573 141.236,225.575 L142.577,225.731 L141.329,225.216 L121.591,273.096 L119.529,245.29 C119.476,244.58 118.876,244.03 118.163,244.041 C117.45,244.05 116.866,244.617 116.834,245.33 C116.386,255.266 113.935,263.565 111.597,269.37 C110.428,272.273 109.288,274.55 108.446,276.095 C108.025,276.867 107.677,277.455 107.439,277.848 C107.319,278.044 107.227,278.19 107.165,278.286 L107.097,278.392 L107.081,278.416 L107.078,278.42 L108.2,279.172 L109.502,279.528 C111.768,271.234 112.307,263.613 112.307,258.204 C112.307,253.244 111.853,250.144 111.845,250.092 C111.755,249.475 111.255,249.002 110.634,248.945 C110.013,248.887 109.436,249.261 109.233,249.851 L96.603,286.659 C96.362,287.361 96.732,288.125 97.432,288.371 C98.131,288.618 98.898,288.253 99.15,287.556 C100.563,283.634 101.804,278.144 102.903,272.058 C106.19,253.819 108.118,230.303 108.121,230.281 C108.178,229.583 107.696,228.96 107.005,228.84 C106.315,228.722 105.65,229.148 105.471,229.825 C101.896,243.338 95.354,256.402 89.703,266.062 C86.878,270.893 84.277,274.875 82.385,277.645 C81.439,279.03 80.671,280.112 80.141,280.845 C79.875,281.213 79.67,281.493 79.531,281.68 C79.461,281.773 79.409,281.844 79.373,281.89 L79.323,281.958 L80.398,282.774 L81.613,283.363 C81.635,283.314 96.374,252.978 105.308,216.847 C105.789,214.9 105.992,212.943 105.992,210.998 C105.986,205.311 104.279,199.739 102.631,194.555 C101.804,191.964 100.988,189.471 100.385,187.128 C99.782,184.787 99.396,182.599 99.397,180.635 C99.397,179.235 99.59,177.953 100.019,176.775 L100.019,176.774 C102.724,169.338 105.51,162.84 112.883,153.092 L111.807,152.277 L112.397,153.491 C115.201,152.129 117.804,151.539 120.242,151.539 C123.169,151.54 125.885,152.388 128.446,153.907 C129.086,154.288 129.915,154.077 130.296,153.436 C130.676,152.796 130.466,151.967 129.825,151.586" fill="#1A1919" id="path188656"/>
    <path d="M161.689,133.915 C161.689,133.915 174.297,132.475 174.297,126.353 C174.297,120.225 161.689,99.332 153.762,93.563 C145.842,87.799 144.049,87.799 141.871,93.563 C139.719,99.327 136.835,101.13 135.032,111.582 C133.223,122.029 132.158,132.834 135.032,133.915 C137.916,134.996 146.205,138.239 146.205,144.003 C146.205,149.772 145.483,154.096 145.483,154.096 C145.483,154.096 151.601,141.124 156.647,137.522 C161.689,133.915 161.689,133.915 161.689,133.915" fill="#1A1919" id="path188658"/>
    <path d="M118.562,159.275 C118.562,159.275 131.777,169.495 131.05,183.195 C130.332,196.896 115.398,216.523 115.398,216.523 C115.398,216.523 111.095,210.185 108.416,188.548 C105.743,166.911 106.054,147.468 118.562,159.275" fill="#1A1919" id="path188660"/>
    <path d="M193.392,184.735 C178.358,180.996 167.938,183.923 165.506,189.429 C165.506,189.429 158.477,207.438 165.506,218.643 C172.552,229.854 191.958,243.924 199.889,252.494 C207.815,261.057 217.904,288.823 267.616,292.909 C267.616,292.909 229.431,284.862 220.783,252.494 C220.783,252.494 235.833,276.366 267.616,276.366 C286.711,276.366 302.204,261.927 302.204,261.927 C302.204,261.927 279.445,269.574 267.616,268.404 C245.642,266.247 236.071,242.464 236.071,242.464 C236.071,242.464 251.052,265.166 277.704,258.674 C304.367,252.193 302.204,242.464 302.204,242.464 C302.204,242.464 289.949,254.155 269.773,247.595 C249.602,241.024 246.717,226.611 246.717,226.611 C246.717,226.611 243.121,228.051 261.857,232.376 C280.589,236.7 290.318,241.383 290.318,241.383 C290.318,241.383 280.952,234.179 264.373,224.091 C247.793,214.003 243.121,208.497 243.121,208.497 C243.121,208.497 277.709,232.376 302.204,228.051 C302.204,228.051 268.338,221.232 254.643,205.544 C240.959,189.866 231.593,184.467 222.945,182.484 C218.699,181.508 208.369,179.203 203.844,179.414" fill="#343534" id="path188662"/>
    <path d="M193.718,183.425 C188.965,182.243 184.643,181.708 180.844,181.707 C176.614,181.71 173.029,182.367 170.204,183.578 C168.793,184.184 167.571,184.932 166.566,185.818 C165.562,186.705 164.777,187.735 164.271,188.883 L164.249,188.938 C164.234,188.977 163.435,191.025 162.635,194.181 C161.837,197.337 161.033,201.599 161.032,206.089 C161.034,210.574 161.832,215.318 164.363,219.36 C166.206,222.292 168.794,225.327 171.766,228.396 C176.222,232.998 181.547,237.668 186.494,241.99 C191.438,246.307 196.012,250.29 198.898,253.41 C200.741,255.392 202.875,258.736 205.736,262.645 C210.035,268.513 216.046,275.678 225.714,281.728 C235.381,287.782 248.684,292.71 267.505,294.255 C268.215,294.313 268.849,293.809 268.952,293.104 C269.054,292.398 268.592,291.736 267.894,291.589 L267.875,291.584 C267.38,291.479 257.923,289.366 247.621,283.385 C242.469,280.396 237.108,276.444 232.532,271.315 C227.954,266.185 224.156,259.887 222.087,252.145 L220.783,252.494 L219.641,253.214 C219.699,253.303 223.544,259.392 231.456,265.499 C239.36,271.603 251.378,277.719 267.616,277.716 C277.509,277.711 286.358,273.996 292.745,270.316 C299.133,266.632 303.074,262.962 303.125,262.915 C303.59,262.482 303.689,261.784 303.365,261.237 C303.039,260.691 302.377,260.445 301.775,260.648 C301.775,260.648 301.703,260.672 301.559,260.719 C300.479,261.075 295.46,262.697 289.301,264.225 C283.149,265.755 275.829,267.181 270.293,267.175 C269.389,267.175 268.537,267.138 267.749,267.06 C262.487,266.542 257.98,264.738 254.141,262.301 C248.385,258.648 244.154,253.549 241.384,249.357 C239.998,247.264 238.976,245.399 238.304,244.065 C237.968,243.399 237.72,242.865 237.557,242.501 C237.476,242.32 237.416,242.18 237.377,242.089 L237.334,241.987 L237.324,241.964 L237.323,241.96 L236.071,242.464 L234.944,243.208 C234.996,243.284 237.935,247.733 243.554,252.208 C246.363,254.445 249.845,256.688 253.976,258.375 C258.106,260.063 262.887,261.192 268.256,261.191 C271.326,261.191 274.587,260.823 278.023,259.986 C289.626,257.162 295.967,253.716 299.484,250.539 C301.239,248.952 302.279,247.425 302.87,246.108 C303.461,244.792 303.597,243.696 303.596,242.997 C303.596,242.544 303.542,242.257 303.523,242.173 C303.418,241.698 303.064,241.314 302.598,241.172 C302.132,241.03 301.625,241.151 301.273,241.487 L301.43,241.651 L301.273,241.486 L301.273,241.487 L301.43,241.651 L301.273,241.486 C301.23,241.527 299.408,243.229 296.084,244.907 C292.758,246.585 287.94,248.243 281.848,248.243 C278.372,248.243 274.478,247.704 270.19,246.311 C260.367,243.105 254.867,238.058 251.77,233.841 C250.223,231.732 249.284,229.825 248.735,228.462 C248.46,227.78 248.283,227.234 248.177,226.867 C248.123,226.684 248.087,226.545 248.066,226.456 L248.044,226.362 L248.04,226.344 L247.755,226.404 L248.041,226.347 L248.04,226.344 L247.755,226.404 L248.041,226.347 C247.962,225.954 247.712,225.615 247.36,225.424 C247.008,225.234 246.587,225.209 246.215,225.358 C246.134,225.394 245.951,225.463 245.701,225.673 C245.577,225.779 245.434,225.927 245.309,226.146 C245.183,226.363 245.088,226.662 245.09,226.975 C245.089,227.385 245.243,227.757 245.434,228.031 C245.777,228.514 246.211,228.828 246.839,229.191 C247.784,229.723 249.215,230.316 251.543,231.054 C253.87,231.789 257.087,232.66 261.554,233.691 C270.865,235.841 277.93,238.077 282.656,239.772 C285.02,240.618 286.799,241.33 287.981,241.827 C288.574,242.076 289.016,242.271 289.308,242.404 C289.454,242.469 289.563,242.52 289.634,242.553 L289.712,242.589 L289.733,242.599 C290.356,242.899 291.104,242.68 291.467,242.091 C291.83,241.501 291.689,240.735 291.141,240.312 C291.109,240.288 281.705,233.056 265.074,222.937 C256.829,217.921 251.567,214.057 248.381,211.464 C246.789,210.168 245.715,209.19 245.048,208.545 C244.715,208.221 244.482,207.983 244.337,207.828 C244.265,207.751 244.214,207.696 244.184,207.661 L244.152,207.627 L244.148,207.621 L243.719,207.99 L244.15,207.624 L244.148,207.621 L243.719,207.99 L244.15,207.624 L243.121,208.497 L242.354,209.608 C242.39,209.632 249.706,214.684 260.032,219.748 C265.196,222.28 271.114,224.817 277.264,226.727 C283.415,228.636 289.799,229.923 295.919,229.925 C298.135,229.925 300.316,229.755 302.439,229.381 C303.077,229.268 303.546,228.715 303.554,228.068 C303.562,227.42 303.106,226.856 302.471,226.728 L302.381,226.71 C301.424,226.512 292.927,224.7 283.067,221.064 C278.138,219.249 272.87,216.976 268.041,214.237 C263.212,211.5 258.83,208.291 255.66,204.656 C248.768,196.761 242.932,191.413 237.674,187.768 C232.421,184.124 227.73,182.193 223.246,181.167 C221.209,180.699 217.769,179.925 214.224,179.265 C212.45,178.935 210.65,178.633 208.977,178.413 C207.302,178.192 205.76,178.051 204.464,178.05 C204.23,178.05 204.001,178.055 203.779,178.065 C203.034,178.102 202.46,178.734 202.496,179.479 C202.532,180.224 203.165,180.798 203.909,180.762 C204.079,180.754 204.265,180.75 204.464,180.75 C205.562,180.75 207.02,180.877 208.625,181.089 C213.449,181.724 219.611,183.102 222.642,183.799 C226.808,184.757 231.124,186.517 236.137,189.988 C241.145,193.458 246.833,198.649 253.626,206.432 C257.201,210.523 262.006,213.962 267.194,216.858 C274.978,221.199 283.641,224.313 290.375,226.358 C297.107,228.402 301.907,229.368 301.938,229.374 L302.204,228.051 L301.97,226.722 C300.022,227.065 297.997,227.225 295.919,227.225 C290.181,227.227 284.037,226.004 278.065,224.148 C269.105,221.367 260.537,217.17 254.228,213.669 C251.073,211.919 248.481,210.344 246.681,209.208 C245.781,208.641 245.08,208.182 244.605,207.868 C244.367,207.711 244.186,207.589 244.065,207.507 L243.93,207.415 L243.887,207.386 C243.331,207.002 242.574,207.09 242.12,207.591 C241.666,208.092 241.654,208.855 242.091,209.37 C242.216,209.516 247.002,215.1 263.671,225.244 C271.935,230.272 278.399,234.581 282.793,237.629 C284.99,239.153 286.669,240.362 287.798,241.188 C288.362,241.602 288.788,241.919 289.073,242.133 C289.214,242.239 289.321,242.32 289.391,242.374 C289.463,242.427 289.495,242.452 289.495,242.453 L290.318,241.383 L290.903,240.166 C290.825,240.128 281,235.41 262.161,231.061 C255.43,229.508 251.619,228.329 249.579,227.499 C248.561,227.089 247.988,226.756 247.76,226.58 L247.652,226.49 L247.643,226.48 L247.307,226.78 L247.712,226.596 C247.673,226.512 247.643,226.481 247.643,226.48 L247.307,226.78 L247.712,226.596 L246.881,226.975 L247.79,226.975 C247.791,226.816 247.75,226.677 247.712,226.596 L246.881,226.975 L247.79,226.975 L246.772,226.975 L247.658,227.476 C247.731,227.352 247.792,227.16 247.79,226.975 L246.772,226.975 L247.658,227.476 L246.884,227.038 L247.384,227.779 C247.444,227.736 247.545,227.668 247.658,227.476 L246.884,227.038 L247.384,227.779 L246.893,227.052 L247.218,227.865 L247.384,227.779 L246.893,227.052 L247.218,227.865 L246.717,226.611 L245.393,226.876 C245.421,227.013 246.199,230.805 249.592,235.437 C252.98,240.069 259.008,245.513 269.355,248.878 C273.907,250.359 278.093,250.944 281.848,250.943 C288.541,250.944 293.846,249.089 297.473,247.23 C301.102,245.37 303.066,243.507 303.137,243.441 L302.204,242.464 L300.887,242.755 L301.503,242.618 L300.88,242.724 L300.887,242.755 L301.503,242.618 L300.88,242.724 C300.88,242.725 300.896,242.82 300.896,242.997 C300.895,243.357 300.831,244.053 300.406,245.004 C299.766,246.424 298.297,248.458 294.824,250.685 C291.353,252.908 285.887,255.297 277.385,257.362 C274.152,258.149 271.11,258.491 268.256,258.491 C263.267,258.491 258.845,257.447 254.997,255.876 C249.229,253.521 244.756,249.966 241.738,246.999 C240.229,245.516 239.084,244.182 238.321,243.225 C237.939,242.748 237.653,242.364 237.466,242.104 C237.371,241.973 237.302,241.873 237.257,241.809 L237.209,241.737 L237.198,241.722 L237.197,241.72 C236.816,241.142 236.057,240.946 235.443,241.268 C234.83,241.59 234.56,242.326 234.818,242.967 C234.853,243.047 237.287,249.102 242.562,255.485 C245.201,258.676 248.555,261.951 252.692,264.58 C256.828,267.208 261.758,269.186 267.484,269.747 C268.376,269.836 269.315,269.875 270.293,269.875 C273.481,269.875 277.071,269.451 280.687,268.824 C291.524,266.944 302.6,263.217 302.634,263.208 L302.204,261.927 L301.284,260.94 L301.277,260.947 C301.093,261.118 297.215,264.665 291.107,268.143 C284.999,271.627 276.674,275.021 267.616,275.017 C252.071,275.013 240.672,269.194 233.105,263.362 C229.326,260.445 226.516,257.528 224.658,255.348 C223.73,254.259 223.039,253.354 222.584,252.727 C222.356,252.413 222.188,252.169 222.078,252.007 C222.023,251.925 221.983,251.864 221.957,251.825 L221.93,251.782 L221.924,251.774 C221.568,251.208 220.855,250.99 220.242,251.257 C219.63,251.524 219.306,252.196 219.479,252.842 C221.7,261.163 225.83,267.931 230.747,273.37 C238.127,281.529 247.256,286.72 254.539,289.893 C261.824,293.065 267.274,294.216 267.337,294.23 L267.616,292.909 L267.727,291.564 C243.107,289.53 228.497,281.699 218.972,273.365 C214.21,269.192 210.72,264.879 207.913,261.048 C205.099,257.215 203,253.878 200.879,251.577 C198.836,249.37 196.114,246.867 193.058,244.156 C188.474,240.093 183.142,235.572 178.314,231.037 C173.489,226.508 169.169,221.944 166.649,217.925 C164.493,214.497 163.73,210.26 163.732,206.089 C163.73,201.922 164.489,197.854 165.253,194.844 C165.634,193.339 166.016,192.098 166.3,191.238 C166.442,190.809 166.559,190.474 166.641,190.249 C166.682,190.137 166.713,190.052 166.734,189.996 L166.757,189.936 L166.763,189.919 L165.506,189.429 L166.741,189.974 C167.073,189.222 167.602,188.507 168.354,187.842 C169.479,186.846 171.112,185.977 173.215,185.368 C175.317,184.758 177.884,184.408 180.844,184.408 C184.39,184.408 188.501,184.909 193.067,186.046 C193.79,186.225 194.522,185.785 194.702,185.061 C194.882,184.338 194.441,183.605 193.718,183.425" fill="#1A1919" id="path188664"/>
    <path d="M107.594,154.181 C107.594,154.181 111.275,152.736 112.804,154.629 C114.333,156.522 117.687,157.039 118.684,159.111 C119.68,161.19 117.244,169.026 117.244,169.026 L104.245,163.737 L107.594,154.181" fill="#F7F1D6" id="path188666"/>
    <path d="M107.593,154.181 L108.087,155.437 L108.088,155.437 C108.126,155.422 108.434,155.308 108.862,155.203 C109.288,155.097 109.84,155.002 110.338,155.003 C110.687,155.002 111.005,155.049 111.239,155.133 C111.477,155.22 111.626,155.322 111.754,155.478 C112.271,156.115 112.889,156.583 113.503,156.975 C114.425,157.56 115.363,157.993 116.09,158.436 C116.452,158.656 116.759,158.874 116.989,159.085 C117.22,159.298 117.37,159.495 117.467,159.697 L117.466,159.695 C117.488,159.712 117.581,160.087 117.573,160.601 C117.574,161.233 117.48,162.081 117.329,162.967 C117.104,164.299 116.759,165.727 116.471,166.809 C116.326,167.352 116.196,167.809 116.103,168.129 C116.056,168.288 116.018,168.415 115.993,168.499 C115.967,168.584 115.954,168.624 115.954,168.624 L117.244,169.026 L117.752,167.775 L105.944,162.97 L108.867,154.627 L107.593,154.181 L108.087,155.437 L107.593,154.181 L106.319,153.734 L102.971,163.29 C102.732,163.97 103.068,164.715 103.736,164.987 L116.735,170.276 C117.083,170.418 117.481,170.406 117.821,170.246 C118.16,170.085 118.421,169.785 118.533,169.426 C118.538,169.409 118.965,168.036 119.395,166.265 C119.61,165.379 119.827,164.393 119.992,163.417 C120.156,162.44 120.271,161.479 120.272,160.601 C120.264,159.879 120.217,159.216 119.901,158.528 L119.9,158.527 C119.53,157.757 118.966,157.184 118.384,156.735 C117.506,156.061 116.551,155.61 115.725,155.151 C114.896,154.699 114.221,154.245 113.854,153.781 C113.377,153.186 112.751,152.801 112.137,152.587 C111.519,152.37 110.907,152.305 110.338,152.303 C109.469,152.305 108.687,152.46 108.103,152.61 C107.52,152.76 107.138,152.91 107.1,152.924 C106.736,153.067 106.448,153.366 106.319,153.734 L107.593,154.181" fill="#1A1919" id="path188668"/>
    <path d="M167.363,187.851 C167.363,187.851 169.103,207.785 177.383,221.565 C185.662,235.35 207.805,243.186 207.805,243.186 C207.805,243.186 212.861,222.34 200.965,208.033 C189.068,193.721 167.363,187.851 167.363,187.851" fill="#1A1919" id="path188670"/>
    <path d="M235.332,274.368 C234.937,274.964 234.393,275.47 233.724,275.829 C231.567,276.994 228.872,276.187 227.701,274.02 C227.469,273.582 203.39,229.132 173.717,204.901 C147.53,183.522 136.133,179.662 120.365,174.32 C108.817,170.407 95.744,165.978 73.913,154.033 C21.547,125.382 2.821,96.637 2.051,95.43 C0.733,93.362 1.324,90.615 3.407,89.291 C5.468,87.972 8.21,88.579 9.534,90.646 C9.803,91.068 28.154,118.87 78.184,146.239 C99.324,157.803 112.018,162.107 123.213,165.898 C139.244,171.33 151.9,175.617 179.344,198.024 C210.416,223.384 234.52,267.929 235.538,269.817 C236.334,271.309 236.202,273.055 235.332,274.368 z" fill="url(#Gradient_1)" id="path188672"/>
    <path d="M235.332,274.368 L234.207,273.621 C233.932,274.036 233.557,274.386 233.086,274.639 L233.082,274.641 C232.613,274.894 232.116,275.011 231.621,275.012 C230.519,275.01 229.453,274.424 228.889,273.379 L228.893,273.387 C228.869,273.341 228.764,273.147 228.564,272.785 C227.075,270.088 220.592,258.598 210.982,244.912 C201.368,231.227 188.639,215.348 174.571,203.855 C161.435,193.132 151.964,186.765 143.768,182.405 C135.571,178.044 128.677,175.71 120.799,173.041 C109.254,169.129 96.324,164.752 74.56,152.849 C22.413,124.316 3.857,95.749 3.189,94.704 C2.856,94.181 2.701,93.607 2.7,93.035 C2.702,92.011 3.198,91.023 4.13,90.431 L4.134,90.429 C4.651,90.099 5.218,89.944 5.786,89.944 C6.808,89.946 7.803,90.446 8.397,91.375 L8.396,91.372 C8.432,91.428 8.519,91.561 8.689,91.807 C11.21,95.456 30.428,121.654 77.536,147.424 C98.745,159.029 111.58,163.386 122.78,167.177 C130.8,169.894 137.87,172.291 146.367,176.789 C154.864,181.287 164.812,187.902 178.49,199.07 C193.863,211.613 207.607,229.007 217.6,243.49 C227.597,257.973 233.855,269.541 234.349,270.457 L234.346,270.453 C234.599,270.925 234.715,271.426 234.715,271.922 C234.716,272.527 234.537,273.124 234.206,273.623 L234.207,273.621 L235.332,274.368 L236.458,275.113 C237.084,274.167 237.416,273.056 237.416,271.922 C237.416,270.995 237.192,270.051 236.729,269.182 L236.726,269.177 C236.202,268.205 229.9,256.557 219.822,241.956 C209.74,227.354 195.896,209.796 180.197,196.978 C166.432,185.739 156.33,179.008 147.63,174.402 C138.932,169.797 131.657,167.334 123.646,164.62 C112.456,160.828 99.904,156.579 78.832,145.055 C53.925,131.429 36.927,117.71 26.132,107.363 C20.735,102.189 16.889,97.859 14.381,94.805 C13.128,93.279 12.209,92.071 11.598,91.237 C11.293,90.82 11.064,90.495 10.91,90.272 C10.832,90.16 10.774,90.074 10.733,90.013 L10.687,89.944 L10.675,89.925 L10.673,89.921 L10.671,89.919 C9.565,88.191 7.691,87.242 5.786,87.244 C4.722,87.243 3.638,87.54 2.679,88.154 L2.683,88.152 C0.946,89.254 -0.003,91.132 0,93.035 C-0.001,94.104 0.298,95.192 0.913,96.156 C1.784,97.526 20.681,126.449 73.265,155.217 C95.165,167.202 108.379,171.686 119.933,175.599 C127.821,178.272 134.51,180.539 142.5,184.788 C150.49,189.039 159.811,195.292 172.863,205.947 C187.531,217.92 200.923,235.01 210.637,249.148 C215.496,256.217 219.44,262.548 222.182,267.135 C223.553,269.429 224.623,271.287 225.357,272.583 C225.724,273.231 226.007,273.738 226.201,274.09 C226.394,274.439 226.504,274.643 226.508,274.652 L226.513,274.661 C227.563,276.604 229.561,277.714 231.621,277.712 C232.549,277.713 233.495,277.487 234.365,277.017 L234.362,277.018 C235.229,276.554 235.942,275.892 236.457,275.115 L236.458,275.113 L235.332,274.368" fill="#1A1919" id="path188674"/>
    <path d="M59.468,140.802 C58.155,142.78 55.93,144.098 53.378,144.129 C31.835,144.393 28.871,137.896 27.886,135.761 C27.058,133.91 26.847,131.911 27.279,130.044 C17.428,125.24 14.338,121.707 14.781,116.76 C14.897,115.5 15.308,114.102 16.168,112.911 C14.939,112.23 13.88,111.656 13.172,111.276 L12.535,110.928 C5.742,107.284 1.935,97.829 0.929,95.018 C-0.448,91.163 1.566,86.918 5.416,85.552 C9.266,84.171 13.511,86.175 14.882,90.03 C16.063,93.267 18.383,97.175 19.559,97.893 L20.181,98.229 C27.785,102.316 34.904,106.341 38.332,110.727 C41.275,114.471 40.742,117.71 40.004,119.54 C40.42,119.714 40.858,119.898 41.306,120.083 C43.759,121.111 49.396,123.468 49.09,129.222 C50.472,129.296 51.875,129.327 53.193,129.316 C57.28,129.264 60.634,132.544 60.686,136.631 C60.713,138.171 60.254,139.605 59.468,140.802" fill="#1A1919" id="path188676"/>
    <path d="M11.111,90.357 C11.111,90.357 16.337,94.095 21.794,89.412 C27.258,84.735 25.655,75.981 25.655,75.981 C25.655,75.981 54.168,29.712 100.517,8.844 C146.859,-12.022 215.989,10.58 215.989,10.58 C215.989,10.58 148.367,2.727 99.92,33.915 C58.44,60.625 44.534,107.859 44.534,107.859 C44.534,107.859 33.828,100.777 29.431,112.806 L11.111,90.357" fill="#1A1919" id="path188678"/>
    <path d="M197.843,5.823 C187.423,4.879 127.464,0.94 83.384,29.311 C41.903,56.021 27.991,103.255 27.991,103.255 C27.991,103.255 24.094,100.703 20.044,101.299 L29.431,112.806 C33.828,100.777 44.534,107.859 44.534,107.859 C44.534,107.859 58.44,60.625 99.92,33.915 C148.367,2.727 215.989,10.58 215.989,10.58 C215.989,10.58 208.928,8.286 197.843,5.823 z" fill="url(#Gradient_2)" id="path188680"/>
    <path d="M197.843,5.823 L197.965,4.479 C195.127,4.221 188.699,3.748 179.948,3.748 C168.062,3.749 151.892,4.62 134.616,8.104 C117.341,11.59 98.953,17.686 82.652,28.176 C61.664,41.694 47.696,60.358 38.96,75.63 C30.225,90.904 26.717,102.803 26.696,102.874 L27.991,103.255 L28.73,102.126 C28.681,102.094 27.836,101.543 26.503,100.986 C25.169,100.432 23.345,99.861 21.305,99.858 C20.829,99.858 20.341,99.89 19.847,99.963 C19.365,100.035 18.962,100.357 18.785,100.811 C18.61,101.265 18.69,101.775 18.998,102.152 L28.385,113.658 C28.692,114.036 29.175,114.217 29.655,114.137 C30.135,114.056 30.532,113.726 30.699,113.269 C31.643,110.692 32.835,109.195 34.043,108.318 C35.254,107.445 36.533,107.142 37.832,107.138 C39.355,107.135 40.876,107.592 41.997,108.068 C42.558,108.303 43.019,108.541 43.332,108.715 C43.49,108.803 43.61,108.874 43.688,108.921 L43.771,108.975 L43.789,108.985 L43.816,108.944 L43.789,108.985 L43.816,108.944 L43.789,108.985 C44.146,109.221 44.594,109.274 44.996,109.127 C45.399,108.98 45.707,108.651 45.828,108.24 L45.836,108.213 C46.03,107.565 49.636,95.751 58.25,80.867 C66.863,65.979 80.479,48.036 100.652,35.05 C116.571,24.8 134.645,18.789 151.689,15.351 C168.731,11.913 184.736,11.049 196.495,11.049 C202.415,11.049 207.26,11.268 210.62,11.487 C212.299,11.595 213.607,11.705 214.494,11.787 C214.937,11.827 215.274,11.861 215.499,11.885 C215.612,11.896 215.697,11.906 215.753,11.912 L215.833,11.921 C216.521,12.001 217.16,11.544 217.308,10.868 C217.455,10.191 217.064,9.51 216.406,9.296 C216.374,9.285 209.275,6.98 198.136,4.505 L197.965,4.479 L197.843,5.823 L197.55,7.141 C203.065,8.366 207.578,9.549 210.709,10.425 C212.274,10.863 213.494,11.224 214.32,11.475 C214.733,11.6 215.048,11.698 215.259,11.764 C215.364,11.797 215.443,11.823 215.496,11.839 L215.572,11.864 L215.989,10.58 L216.145,9.239 C216.104,9.234 208.469,8.349 196.495,8.349 C184.604,8.349 168.432,9.221 151.155,12.705 C133.879,16.191 115.491,22.287 99.19,32.78 C78.2,46.298 64.234,64.962 55.5,80.233 C46.766,95.508 43.26,107.407 43.238,107.478 L44.534,107.859 L45.278,106.733 C45.228,106.701 44.382,106.143 43.046,105.579 C41.709,105.019 39.879,104.441 37.832,104.438 C36.099,104.433 34.187,104.877 32.459,106.132 C30.73,107.383 29.237,109.395 28.163,112.342 L29.431,112.806 L30.477,111.952 L21.09,100.446 L20.044,101.299 L20.242,102.634 C20.593,102.582 20.949,102.558 21.305,102.558 C22.825,102.555 24.344,103.008 25.463,103.478 C26.023,103.711 26.483,103.946 26.796,104.118 C26.953,104.205 27.073,104.275 27.15,104.322 L27.235,104.374 L27.251,104.385 L27.278,104.344 L27.251,104.385 L27.278,104.344 L27.251,104.385 C27.61,104.619 28.055,104.67 28.457,104.523 C28.859,104.375 29.165,104.048 29.286,103.637 L29.294,103.609 C29.488,102.962 33.095,91.148 41.71,76.263 C50.324,61.375 63.942,43.432 84.114,30.446 C100.034,20.198 118.107,14.187 135.15,10.751 C152.191,7.314 168.194,6.448 179.948,6.448 C188.601,6.448 194.951,6.917 197.721,7.167 L197.843,5.823 L197.55,7.141 L197.843,5.823" fill="#1A1919" id="path188682"/>
    <path d="M112.625,174.315 C112.625,174.315 115.451,174.462 115.472,173.809 C115.499,173.149 113.606,170.007 113.606,170.007 L115.061,164.095 L112.778,164.812 L111.116,169.315 C111.116,169.315 110.779,172.079 112.625,174.315" fill="#F7F1D6" id="path188684"/>
    <path d="M112.624,174.315 L112.554,175.663 C112.571,175.664 112.864,175.679 113.275,175.679 C113.734,175.677 114.323,175.664 114.903,175.569 C115.199,175.517 115.489,175.458 115.838,175.29 C116.012,175.202 116.213,175.083 116.418,174.855 C116.622,174.636 116.814,174.253 116.822,173.854 L116.822,173.808 L116.822,173.794 C116.821,173.6 116.795,173.466 116.768,173.341 C116.715,173.112 116.646,172.923 116.566,172.721 C116.29,172.034 115.852,171.221 115.468,170.532 C115.086,169.849 114.767,169.318 114.761,169.31 L113.605,170.007 L114.916,170.329 L116.371,164.418 C116.488,163.945 116.339,163.443 115.984,163.11 C115.63,162.777 115.12,162.661 114.656,162.807 L112.372,163.524 C111.973,163.65 111.656,163.951 111.511,164.345 L109.85,168.848 C109.816,168.94 109.788,169.053 109.777,169.151 C109.771,169.197 109.742,169.448 109.742,169.847 C109.742,170.391 109.794,171.213 110.048,172.158 C110.3,173.102 110.76,174.177 111.583,175.174 C111.826,175.468 112.174,175.643 112.554,175.663 L112.624,174.315 L113.665,173.456 C113.137,172.815 112.831,172.112 112.655,171.459 C112.48,170.808 112.441,170.214 112.441,169.847 C112.441,169.714 112.447,169.61 112.451,169.546 L112.456,169.481 L112.456,169.48 L111.116,169.315 L112.383,169.783 L113.815,165.901 L115.465,165.383 L115.061,164.095 L113.749,163.772 L112.294,169.684 C112.209,170.029 112.265,170.398 112.449,170.703 C112.449,170.703 112.475,170.746 112.524,170.829 C112.697,171.12 113.135,171.87 113.519,172.597 C113.71,172.959 113.887,173.319 114.004,173.589 C114.062,173.723 114.104,173.835 114.123,173.896 L114.133,173.929 L114.134,173.936 L114.767,173.794 L114.122,173.794 C114.123,173.901 114.134,173.931 114.134,173.936 L114.767,173.794 L114.122,173.794 L114.122,173.808 L115.472,173.808 L114.123,173.763 L115.227,173.8 L114.397,173.065 C114.273,173.195 114.127,173.476 114.123,173.763 L115.227,173.8 L114.397,173.065 L115.027,173.623 L114.626,172.878 C114.587,172.899 114.506,172.944 114.397,173.065 L115.027,173.623 L114.626,172.878 L114.809,173.217 L114.659,172.861 L114.626,172.878 L114.809,173.217 L114.659,172.861 L114.659,172.862 C114.619,172.879 114.374,172.929 114.107,172.948 C113.837,172.971 113.53,172.98 113.275,172.979 C113.103,172.979 112.954,172.976 112.85,172.973 L112.73,172.968 L112.694,172.967 L112.624,174.315 L113.665,173.456 L112.624,174.315" fill="#1A1919" id="path188686"/>
    <path d="M101.366,171.066 L99.873,165.413 L102.03,159.534 L106.771,156.38 C106.771,156.38 107.519,155.547 106.918,157.767 C106.323,159.998 103.686,160.804 103.686,160.804 L103.111,166.853 C103.111,166.853 106.028,170.339 104.767,171.425 C103.507,172.517 101.366,171.066 101.366,171.066" fill="#F7F1D6" id="path188688"/>
    <path d="M101.366,171.066 L102.671,170.721 L101.287,165.48 L103.145,160.413 L107.519,157.504 C107.612,157.441 107.7,157.365 107.776,157.281 L107.273,156.831 L107.695,157.359 L107.776,157.281 L107.273,156.831 L107.695,157.359 L107.146,156.672 L107.544,157.455 C107.632,157.409 107.669,157.379 107.695,157.359 L107.146,156.672 L107.544,157.455 L107.018,156.418 L107.018,157.577 C107.308,157.572 107.456,157.495 107.544,157.455 L107.018,156.418 L107.018,157.577 L107.018,156.324 L106.361,157.389 C106.574,157.525 106.831,157.579 107.018,157.577 L107.018,156.324 L106.361,157.389 L107.01,156.337 L105.993,157.042 C106.073,157.159 106.199,157.29 106.361,157.389 L107.01,156.337 L105.993,157.042 L106.897,156.415 L105.817,156.643 C105.836,156.724 105.871,156.863 105.993,157.042 L106.897,156.415 L105.817,156.643 L106.406,156.519 L105.801,156.519 C105.802,156.524 105.8,156.559 105.817,156.643 L106.406,156.519 L105.801,156.519 L105.797,156.574 C105.785,156.695 105.733,156.98 105.615,157.414 L105.614,157.419 C105.523,157.754 105.359,158.042 105.133,158.308 C104.798,158.706 104.319,159.031 103.924,159.236 C103.729,159.339 103.556,159.413 103.439,159.459 L103.31,159.507 L103.285,159.515 L103.284,159.516 L103.535,160.311 L103.291,159.514 L103.284,159.516 L103.535,160.311 L103.291,159.514 C102.769,159.673 102.394,160.133 102.342,160.677 L101.767,166.725 C101.733,167.085 101.844,167.443 102.076,167.719 L102.077,167.721 C102.113,167.764 102.575,168.329 103.001,169.005 C103.214,169.341 103.417,169.706 103.55,170.02 C103.689,170.331 103.739,170.599 103.732,170.652 L103.733,170.652 L104.161,170.725 L103.885,170.404 C103.796,170.472 103.731,170.624 103.733,170.652 L104.161,170.725 L103.885,170.404 L103.79,170.457 C103.75,170.469 103.687,170.481 103.597,170.481 C103.358,170.488 102.945,170.37 102.628,170.221 C102.468,170.148 102.331,170.073 102.239,170.02 L102.139,169.959 L102.119,169.946 L102.118,169.945 L101.666,170.624 L102.123,169.949 L102.118,169.945 L101.666,170.624 L102.123,169.949 L101.366,171.066 L102.671,170.721 L101.366,171.066 L100.608,172.184 C100.652,172.212 100.988,172.44 101.509,172.678 C102.032,172.911 102.734,173.175 103.597,173.182 C103.922,173.182 104.271,173.139 104.627,173.024 C104.981,172.909 105.339,172.716 105.65,172.446 C105.928,172.209 106.143,171.894 106.266,171.575 C106.391,171.255 106.433,170.939 106.433,170.652 C106.426,169.985 106.235,169.432 106.012,168.91 C105.671,168.133 105.215,167.431 104.837,166.896 C104.46,166.363 104.163,166.007 104.146,165.987 L103.111,166.853 L104.455,166.981 L105.03,160.932 L103.686,160.804 L104.081,162.096 C104.158,162.07 104.919,161.838 105.818,161.251 C106.268,160.957 106.753,160.571 107.191,160.057 C107.627,159.544 108.014,158.895 108.223,158.115 L108.221,158.119 C108.315,157.773 108.382,157.484 108.427,157.229 C108.473,156.972 108.5,156.753 108.501,156.519 C108.493,156.286 108.494,156.03 108.301,155.648 C108.202,155.462 108.027,155.244 107.779,155.092 C107.533,154.937 107.242,154.874 107.018,154.877 C106.673,154.882 106.468,154.977 106.322,155.046 C106.107,155.159 106.001,155.255 105.917,155.328 C105.836,155.4 105.789,155.453 105.766,155.479 L106.771,156.38 L106.023,155.256 L101.282,158.41 C101.042,158.569 100.862,158.797 100.763,159.069 L98.605,164.948 C98.51,165.208 98.497,165.491 98.567,165.758 L100.061,171.411 C100.145,171.729 100.336,171.999 100.608,172.184 L101.366,171.066" fill="#1A1919" id="path188690"/>
    <path d="M104.604,172.517 L103.111,166.853 L105.263,160.978 L109.988,157.819 C109.988,157.819 110.747,156.987 110.146,159.212 C109.555,161.437 106.918,162.249 106.918,162.249 L106.323,168.298 C106.323,168.298 109.26,171.778 107.994,172.87 C106.729,173.961 104.604,172.517 104.604,172.517" fill="#F7F1D6" id="path188692"/>
    <path d="M104.604,172.517 L105.909,172.173 L104.525,166.92 L106.379,161.856 L110.738,158.942 C110.832,158.879 110.909,158.811 110.986,158.728 L110.487,158.274 L110.903,158.806 L110.986,158.728 L110.487,158.274 L110.903,158.806 L110.365,158.118 L110.753,158.899 C110.841,158.855 110.878,158.826 110.903,158.806 L110.365,158.118 L110.753,158.899 L110.239,157.864 L110.239,159.017 C110.52,159.012 110.666,158.939 110.753,158.899 L110.239,157.864 L110.239,159.017 L110.239,157.768 L109.587,158.832 C109.8,158.965 110.054,159.019 110.239,159.017 L110.239,157.768 L109.587,158.832 L110.231,157.78 L109.22,158.488 C109.301,158.605 109.427,158.735 109.587,158.832 L110.231,157.78 L109.22,158.488 L110.117,157.861 L109.043,158.089 C109.061,158.171 109.097,158.31 109.22,158.488 L110.117,157.861 L109.043,158.089 L109.616,157.967 L109.028,157.968 C109.028,157.971 109.026,158.007 109.043,158.089 L109.616,157.967 L109.028,157.968 L109.022,158.025 C109.01,158.146 108.959,158.43 108.842,158.86 L108.841,158.865 C108.752,159.198 108.588,159.486 108.363,159.751 C108.029,160.149 107.55,160.475 107.156,160.68 C106.959,160.783 106.786,160.858 106.67,160.904 L106.541,160.952 L106.516,160.96 L106.514,160.961 L106.766,161.757 L106.521,160.959 L106.514,160.961 L106.766,161.757 L106.521,160.959 C105.999,161.12 105.628,161.574 105.575,162.117 L104.979,168.165 C104.943,168.53 105.055,168.889 105.291,169.168 L105.293,169.17 C105.328,169.212 105.795,169.778 106.224,170.454 C106.438,170.79 106.643,171.154 106.778,171.468 C106.916,171.78 106.966,172.047 106.961,172.097 L106.965,172.097 L106.961,172.096 L106.961,172.097 L106.965,172.097 L106.961,172.096 L107.387,172.168 L107.111,171.849 C107.024,171.916 106.959,172.066 106.961,172.096 L107.387,172.168 L107.111,171.849 L107.113,171.847 L107.015,171.903 C106.974,171.915 106.91,171.927 106.82,171.927 C106.583,171.934 106.174,171.817 105.861,171.669 C105.703,171.597 105.567,171.523 105.477,171.47 L105.378,171.41 L105.359,171.398 L105.358,171.397 L104.894,172.089 L105.363,171.4 L105.358,171.397 L104.894,172.089 L105.363,171.4 L104.604,172.517 L105.909,172.173 L104.604,172.517 L103.844,173.633 C103.887,173.661 104.222,173.888 104.74,174.125 C105.26,174.357 105.959,174.621 106.82,174.627 C107.145,174.627 107.495,174.585 107.851,174.47 C108.206,174.355 108.563,174.162 108.875,173.892 L108.878,173.89 C109.155,173.653 109.37,173.339 109.493,173.021 C109.618,172.701 109.66,172.385 109.66,172.097 C109.653,171.427 109.46,170.874 109.235,170.351 C108.892,169.574 108.431,168.871 108.051,168.336 C107.671,167.803 107.371,167.447 107.354,167.427 L106.323,168.298 L107.666,168.43 L108.262,162.381 L106.918,162.249 L107.315,163.539 C107.392,163.514 108.153,163.28 109.051,162.693 C109.499,162.399 109.985,162.012 110.421,161.499 C110.857,160.987 111.244,160.338 111.451,159.558 L111.449,159.563 C111.632,158.871 111.722,158.427 111.727,157.968 C111.719,157.731 111.719,157.469 111.522,157.085 C111.422,156.897 111.245,156.681 110.997,156.53 C110.751,156.376 110.462,156.314 110.239,156.317 C109.901,156.321 109.697,156.413 109.551,156.482 C109.336,156.592 109.229,156.687 109.143,156.76 C109.061,156.832 109.013,156.885 108.989,156.91 L109.988,157.819 L109.238,156.697 L104.513,159.856 C104.273,160.017 104.094,160.243 103.995,160.514 L101.843,166.389 C101.748,166.648 101.735,166.93 101.806,167.197 L103.298,172.86 C103.38,173.173 103.576,173.451 103.844,173.633 L104.604,172.517" fill="#1A1919" id="path188694"/>
    <path d="M107.821,173.956 L106.338,168.298 L108.5,162.423 L113.21,159.27 C113.21,159.27 113.969,158.436 113.373,160.657 C112.778,162.888 110.141,163.694 110.141,163.694 L109.555,169.738 C109.555,169.738 112.493,173.229 111.222,174.315 C109.956,175.407 107.821,173.956 107.821,173.956" fill="#F7F1D6" id="path188696"/>
    <path d="M107.821,173.956 L109.127,173.614 L107.751,168.366 L109.616,163.301 L113.961,160.392 C114.055,160.329 114.131,160.262 114.208,160.179 L113.71,159.725 L114.125,160.256 L114.208,160.179 L113.71,159.725 L114.125,160.256 L113.588,159.57 L113.975,160.349 C114.063,160.305 114.1,160.275 114.125,160.256 L113.588,159.57 L113.975,160.349 L113.462,159.316 L113.462,160.467 C113.743,160.462 113.888,160.389 113.975,160.349 L113.462,159.316 L113.462,160.467 L113.462,159.219 L112.809,160.282 C113.022,160.415 113.276,160.469 113.462,160.467 L113.462,159.219 L112.809,160.282 L113.454,159.232 L112.442,159.937 C112.523,160.054 112.649,160.185 112.809,160.282 L113.454,159.232 L112.442,159.937 L113.337,159.312 L112.266,159.54 C112.285,159.621 112.32,159.759 112.442,159.937 L113.337,159.312 L112.266,159.54 L112.831,159.42 L112.251,159.42 C112.251,159.423 112.25,159.457 112.266,159.54 L112.831,159.42 L112.251,159.42 C112.252,159.421 112.248,159.502 112.22,159.653 C112.193,159.805 112.145,160.023 112.069,160.308 C111.979,160.644 111.814,160.932 111.588,161.198 C111.254,161.596 110.774,161.921 110.38,162.126 C110.183,162.229 110.011,162.303 109.894,162.348 L109.766,162.396 L109.74,162.405 L109.739,162.406 L109.985,163.187 L109.746,162.403 L109.739,162.406 L109.985,163.187 L109.746,162.403 C109.223,162.563 108.85,163.021 108.797,163.564 L108.211,169.607 C108.176,169.966 108.29,170.331 108.522,170.607 L108.524,170.608 C108.559,170.65 109.025,171.217 109.454,171.894 C109.669,172.23 109.873,172.596 110.007,172.911 C110.147,173.222 110.197,173.49 110.191,173.541 L110.195,173.541 L110.192,173.54 L110.191,173.541 L110.195,173.541 L110.192,173.54 L110.619,173.613 L110.343,173.29 C110.255,173.357 110.189,173.509 110.192,173.54 L110.619,173.613 L110.343,173.29 L110.34,173.292 L110.244,173.346 C110.204,173.36 110.141,173.372 110.05,173.372 C109.811,173.379 109.398,173.26 109.082,173.111 C108.923,173.038 108.785,172.963 108.695,172.91 L108.595,172.849 L108.575,172.837 L108.574,172.836 L108.121,173.514 L108.579,172.84 L108.574,172.836 L108.121,173.514 L108.579,172.84 L107.821,173.956 L109.127,173.614 L107.821,173.956 L107.062,175.073 C107.105,175.102 107.441,175.329 107.962,175.567 C108.485,175.801 109.187,176.065 110.05,176.072 C110.374,176.072 110.724,176.029 111.079,175.914 C111.434,175.8 111.791,175.608 112.103,175.338 L112.1,175.34 C112.38,175.103 112.598,174.788 112.721,174.468 C112.848,174.147 112.891,173.829 112.891,173.541 C112.883,172.871 112.691,172.318 112.466,171.795 C112.123,171.017 111.663,170.314 111.284,169.778 C110.904,169.245 110.604,168.888 110.588,168.868 L109.555,169.738 L110.899,169.868 L111.485,163.825 L110.141,163.694 L110.536,164.986 C110.612,164.96 111.374,164.728 112.274,164.141 C112.722,163.847 113.207,163.461 113.645,162.947 C114.082,162.435 114.47,161.785 114.677,161.005 C114.857,160.319 114.945,159.876 114.95,159.42 C114.943,159.182 114.942,158.921 114.746,158.536 C114.646,158.349 114.47,158.131 114.221,157.98 C113.975,157.827 113.684,157.764 113.462,157.767 C113.124,157.771 112.919,157.863 112.774,157.932 C112.559,158.042 112.451,158.137 112.366,158.21 C112.283,158.283 112.235,158.335 112.211,158.361 L113.21,159.27 L112.458,158.148 L107.749,161.301 C107.514,161.459 107.33,161.692 107.233,161.957 L105.071,167.832 C104.975,168.09 104.962,168.373 105.032,168.64 L106.514,174.298 C106.598,174.616 106.79,174.889 107.062,175.073 L107.821,173.956" fill="#1A1919" id="path188698"/>
    <path d="M109.961,153.253 C109.961,153.253 105.368,152.82 102.542,152.161 C101.028,151.808 97.637,153.337 97.426,153.923 C97.215,154.513 98.782,160.562 98.782,160.562 C98.782,160.562 102.194,164.316 102.785,163.589 C103.375,162.85 100.922,160.393 100.728,159.428 C100.527,158.469 100.553,155.589 100.553,155.589 L106.971,156.791 C106.971,156.791 115.657,155.331 109.961,153.253" fill="#F7F1D6" id="path188700"/>
    <path d="M109.961,153.252 L110.088,151.908 C110.088,151.908 110.021,151.902 109.893,151.89 C109.444,151.845 108.271,151.722 106.912,151.541 C105.556,151.36 104.006,151.117 102.848,150.846 C102.565,150.78 102.293,150.759 102.027,150.759 C101.44,150.76 100.866,150.864 100.295,151.011 C99.442,151.236 98.609,151.565 97.919,151.913 C97.572,152.088 97.265,152.266 96.988,152.466 C96.848,152.567 96.716,152.673 96.58,152.811 C96.446,152.955 96.29,153.114 96.155,153.466 C96.097,153.633 96.082,153.746 96.07,153.843 C96.059,153.94 96.056,154.02 96.056,154.096 C96.058,154.368 96.088,154.611 96.13,154.902 C96.277,155.895 96.609,157.359 96.909,158.619 C97.208,159.873 97.473,160.895 97.475,160.9 C97.53,161.114 97.633,161.306 97.783,161.469 C97.796,161.484 98.519,162.281 99.392,163.104 C99.83,163.517 100.302,163.935 100.776,164.283 C101.015,164.458 101.254,164.616 101.52,164.752 C101.792,164.881 102.079,165.021 102.565,165.032 C102.754,165.033 102.979,165.002 103.212,164.904 C103.444,164.809 103.67,164.64 103.828,164.445 L103.84,164.43 C103.981,164.253 104.085,164.047 104.144,163.85 C104.205,163.652 104.225,163.464 104.225,163.296 C104.222,162.944 104.145,162.673 104.059,162.429 C103.902,162.007 103.694,161.65 103.469,161.293 C103.134,160.764 102.755,160.251 102.464,159.821 C102.319,159.608 102.197,159.417 102.121,159.282 L102.047,159.134 L102.04,159.117 L101.678,159.237 L102.051,159.162 L102.04,159.117 L101.678,159.237 L102.051,159.162 L102.049,159.151 C102.03,159.066 101.999,158.835 101.979,158.563 C101.912,157.733 101.901,156.489 101.902,155.919 C101.902,155.72 101.903,155.605 101.903,155.604 L100.553,155.589 L100.305,156.915 L106.722,158.118 C106.88,158.148 107.036,158.149 107.195,158.122 C107.225,158.116 108.49,157.906 109.822,157.508 C110.492,157.305 111.173,157.065 111.79,156.721 C112.098,156.546 112.397,156.346 112.68,156.042 C112.82,155.889 112.957,155.706 113.065,155.475 C113.173,155.245 113.248,154.962 113.247,154.666 C113.249,154.275 113.115,153.897 112.931,153.612 C112.649,153.181 112.295,152.907 111.891,152.658 C111.484,152.412 111.007,152.198 110.424,151.984 C110.317,151.946 110.201,151.919 110.088,151.908 L109.961,153.252 L109.498,154.521 C110.126,154.747 110.508,154.962 110.635,155.064 L110.685,155.106 L110.825,154.971 L110.668,155.084 L110.685,155.106 L110.825,154.971 L110.668,155.084 L111.248,154.666 L110.547,154.666 C110.544,154.869 110.631,155.04 110.668,155.084 L111.248,154.666 L110.547,154.666 L111.332,154.666 L110.618,154.332 C110.582,154.407 110.546,154.532 110.547,154.666 L111.332,154.666 L110.618,154.332 L111.037,154.528 L110.689,154.218 C110.682,154.227 110.652,154.26 110.618,154.332 L111.037,154.528 L110.689,154.218 L110.742,154.266 L110.692,154.215 L110.689,154.218 L110.742,154.266 L110.692,154.215 C110.69,154.233 110.39,154.438 109.988,154.595 C109.38,154.846 108.545,155.075 107.886,155.226 C107.555,155.303 107.265,155.362 107.061,155.402 C106.959,155.421 106.878,155.436 106.824,155.446 L106.763,155.457 L106.747,155.46 L106.971,156.791 L107.219,155.464 L100.801,154.262 C100.409,154.188 100.007,154.291 99.698,154.545 C99.388,154.799 99.208,155.172 99.203,155.573 C99.203,155.577 99.202,155.707 99.202,155.919 C99.202,156.321 99.206,157.02 99.231,157.731 C99.244,158.085 99.261,158.443 99.287,158.775 C99.315,159.111 99.346,159.409 99.407,159.704 L99.404,159.694 C99.466,159.992 99.562,160.203 99.664,160.408 C99.841,160.76 100.054,161.08 100.277,161.409 C100.612,161.895 100.973,162.39 101.225,162.796 C101.351,162.997 101.447,163.175 101.495,163.287 L101.534,163.389 L101.666,163.353 L101.531,163.373 L101.534,163.389 L101.666,163.353 L101.531,163.373 L102.043,163.296 L101.525,163.296 L101.531,163.373 L102.043,163.296 L101.525,163.296 L102.331,163.296 L101.562,163.062 C101.532,163.162 101.525,163.243 101.525,163.296 L102.331,163.296 L101.562,163.062 L102.471,163.339 L101.729,162.747 C101.65,162.845 101.592,162.962 101.562,163.062 L102.471,163.339 L101.729,162.747 L102.785,163.589 L101.741,162.732 L102.595,163.434 L102.167,162.414 C102.009,162.479 101.845,162.601 101.741,162.732 L102.595,163.434 L102.167,162.414 L102.565,163.364 L102.565,162.332 C102.469,162.332 102.326,162.348 102.167,162.414 L102.565,163.364 L102.565,162.332 L102.565,163.013 L102.771,162.359 C102.75,162.354 102.691,162.333 102.565,162.332 L102.565,163.013 L102.771,162.359 L102.715,162.538 L102.779,162.362 L102.771,162.359 L102.715,162.538 L102.779,162.362 L102.767,162.357 C102.679,162.322 102.364,162.117 102.039,161.846 C101.539,161.436 100.961,160.878 100.521,160.431 C100.3,160.207 100.113,160.011 99.982,159.871 C99.917,159.801 99.866,159.746 99.831,159.708 L99.781,159.654 L98.782,160.562 L100.088,160.223 C100.088,160.222 100.004,159.897 99.876,159.387 C99.685,158.62 99.397,157.441 99.16,156.36 C99.041,155.821 98.936,155.305 98.863,154.888 C98.826,154.68 98.798,154.497 98.78,154.354 C98.761,154.214 98.756,154.107 98.756,154.096 L98.319,154.096 L98.753,154.145 L98.756,154.096 L98.319,154.096 L98.753,154.145 L97.723,154.029 L98.696,154.38 C98.741,154.249 98.746,154.185 98.753,154.145 L97.723,154.029 L98.696,154.38 L97.781,154.05 L98.54,154.664 C98.572,154.623 98.632,154.55 98.696,154.379 L97.781,154.05 L98.54,154.664 L98.129,154.332 L98.509,154.7 L98.54,154.664 L98.129,154.332 L98.509,154.7 L98.425,154.619 L98.504,154.706 L98.509,154.7 L98.425,154.619 L98.504,154.706 C98.522,154.684 98.729,154.535 99.002,154.392 C99.415,154.171 99.997,153.922 100.567,153.743 C101.134,153.56 101.707,153.454 102.027,153.459 C102.134,153.458 102.209,153.469 102.233,153.475 C103.737,153.825 105.615,154.099 107.141,154.293 C108.664,154.487 109.825,154.596 109.835,154.596 L109.961,153.252 L109.498,154.521 L109.961,153.252" fill="#1A1919" id="path188702"/>
    <path d="M161.467,193.863 C161.467,193.863 155.561,194.77 155.561,195.166 C155.561,195.561 157.844,198.288 158.525,198.056 C159.194,197.835 167.363,198.056 167.363,198.056 L161.467,193.863" fill="#F7F1D6" id="path188704"/>
    <path d="M161.467,193.863 L161.262,192.529 C161.254,192.53 159.77,192.758 158.265,193.039 C157.511,193.181 156.757,193.333 156.151,193.487 C155.845,193.566 155.582,193.64 155.326,193.738 C155.195,193.791 155.069,193.841 154.886,193.957 C154.795,194.02 154.684,194.096 154.544,194.259 C154.474,194.343 154.397,194.451 154.33,194.602 C154.263,194.751 154.21,194.948 154.211,195.166 C154.219,195.495 154.285,195.63 154.329,195.758 C154.42,195.98 154.508,196.121 154.61,196.283 C154.786,196.556 155.005,196.845 155.259,197.152 C155.639,197.611 156.087,198.093 156.553,198.503 C156.788,198.709 157.025,198.897 157.296,199.062 C157.433,199.145 157.58,199.223 157.757,199.29 C157.935,199.356 158.147,199.418 158.434,199.419 C158.592,199.42 158.772,199.396 158.949,199.337 L158.671,198.498 L158.852,199.364 L158.948,199.338 L158.671,198.498 L158.852,199.364 L158.773,198.988 L158.84,199.366 L158.852,199.364 L158.773,198.988 L158.84,199.366 L158.852,199.365 C158.941,199.352 159.261,199.332 159.658,199.322 C160.061,199.311 160.563,199.307 161.113,199.307 C162.406,199.307 163.963,199.332 165.193,199.356 C166.424,199.38 167.324,199.405 167.326,199.405 C167.921,199.422 168.455,199.048 168.643,198.483 C168.832,197.919 168.63,197.301 168.145,196.956 L162.249,192.763 C161.963,192.56 161.608,192.476 161.262,192.529 L161.467,193.863 L160.685,194.964 L166.58,199.156 L167.363,198.056 L167.399,196.706 C167.393,196.706 163.762,196.608 161.113,196.608 C160.449,196.608 159.848,196.614 159.366,196.63 C159.124,196.638 158.913,196.648 158.726,196.664 C158.632,196.672 158.543,196.681 158.45,196.695 C158.354,196.71 158.264,196.722 158.101,196.774 L158.434,197.781 L158.434,196.719 C158.34,196.719 158.221,196.734 158.1,196.774 L158.434,197.781 L158.434,196.719 L158.434,197.545 L158.687,196.756 C158.647,196.744 158.57,196.721 158.434,196.719 L158.434,197.545 L158.687,196.756 L158.565,197.137 L158.723,196.769 L158.687,196.756 L158.565,197.137 L158.723,196.769 L158.716,196.785 L158.724,196.77 L158.723,196.769 L158.716,196.785 L158.724,196.77 C158.684,196.754 158.462,196.598 158.234,196.383 C157.883,196.062 157.474,195.609 157.184,195.239 C157.039,195.055 156.921,194.889 156.862,194.793 L156.83,194.74 L156.825,194.73 L156.265,195.004 L156.856,194.809 L156.825,194.73 L156.265,195.004 L156.856,194.809 L155.774,195.166 L156.911,195.166 C156.907,194.954 156.872,194.867 156.856,194.809 L155.774,195.166 L156.911,195.166 L155.608,195.166 L156.799,195.693 C156.86,195.556 156.911,195.371 156.911,195.166 L155.608,195.166 L156.799,195.693 L155.669,195.193 L156.467,196.141 C156.543,196.072 156.674,195.964 156.799,195.693 L155.669,195.193 L156.467,196.141 L155.98,195.561 L156.285,196.262 C156.284,196.258 156.313,196.264 156.467,196.141 L155.98,195.561 L156.285,196.262 C156.299,196.255 156.445,196.203 156.635,196.152 C157.323,195.962 158.616,195.713 159.695,195.525 C160.238,195.43 160.734,195.348 161.092,195.289 C161.452,195.231 161.671,195.198 161.672,195.198 L161.467,193.863 L160.685,194.964 L161.467,193.863" fill="#1A1919" id="path188706"/>
    <path d="M176.896,189.893 L167.363,187.852 L161.24,193.072 L163.281,199.875 L165.775,199.875 L164.415,195.113 L167.363,191.48 L171.676,192.16 C171.676,192.16 177.355,194.201 176.896,189.893" fill="#F7F1D6" id="path188708"/>
    <path d="M176.896,189.893 L177.179,188.572 L167.645,186.531 C167.235,186.444 166.806,186.552 166.486,186.825 L160.364,192.045 C159.958,192.391 159.794,192.949 159.947,193.46 L161.988,200.263 C162.159,200.833 162.686,201.225 163.281,201.225 L165.775,201.225 C166.199,201.225 166.598,201.027 166.853,200.688 C167.108,200.349 167.19,199.911 167.074,199.504 L165.906,195.418 L167.921,192.935 L171.466,193.494 L171.676,192.16 L171.219,193.431 C171.253,193.443 171.631,193.578 172.198,193.714 C172.767,193.85 173.521,193.992 174.347,193.993 C174.751,193.992 175.174,193.959 175.607,193.857 C175.931,193.779 176.263,193.663 176.585,193.485 C177.068,193.223 177.528,192.801 177.829,192.249 C178.133,191.697 178.273,191.052 178.272,190.366 C178.272,190.167 178.261,189.964 178.24,189.757 C178.18,189.173 177.753,188.695 177.179,188.572 L176.896,189.893 L175.553,190.028 C175.566,190.155 175.572,190.269 175.572,190.366 C175.571,190.664 175.52,190.827 175.48,190.915 C175.413,191.038 175.38,191.074 175.202,191.16 C175.028,191.237 174.715,191.295 174.347,191.293 C173.846,191.295 173.264,191.195 172.829,191.089 C172.612,191.037 172.429,190.983 172.304,190.946 L172.165,190.901 L172.135,190.89 L172.13,190.889 L171.952,191.39 L172.133,190.89 L172.13,190.889 L171.952,191.39 L172.133,190.89 C172.057,190.863 171.964,190.839 171.887,190.827 L167.573,190.146 C167.096,190.071 166.618,190.255 166.314,190.629 L163.367,194.262 C163.087,194.606 162.995,195.059 163.117,195.484 L163.985,198.525 L163.281,198.525 L163.281,199.875 L164.574,199.487 L162.786,193.528 L167.732,189.311 L176.614,191.213 L176.896,189.893 L175.553,190.028 L176.896,189.893" fill="#1A1919" id="path188710"/>
    <path d="M181.2,190.573 L169.076,190.573 L165.506,198.947 L167.584,203.736 L171.676,205.544 C171.676,205.544 171.223,203.508 170.316,201.916 C169.409,200.329 169.076,198.056 169.076,198.056 L171.676,193.863 L176.918,193.863 C176.918,193.863 183.02,194.201 181.2,190.573" fill="#F7F1D6" id="path188712"/>
    <path d="M181.2,190.573 L181.2,189.223 L169.076,189.223 C168.535,189.223 168.047,189.545 167.834,190.044 L164.264,198.417 C164.119,198.759 164.12,199.144 164.267,199.485 L166.346,204.273 C166.481,204.585 166.727,204.833 167.038,204.97 L171.13,206.778 C171.595,206.984 172.139,206.91 172.532,206.588 C172.925,206.265 173.104,205.746 172.994,205.251 C172.987,205.222 172.865,204.678 172.622,203.916 C172.376,203.152 172.015,202.174 171.489,201.248 L171.488,201.246 C171.132,200.631 170.84,199.754 170.663,199.056 C170.574,198.705 170.51,198.399 170.469,198.183 C170.448,198.075 170.434,197.991 170.424,197.935 L170.414,197.874 L170.412,197.861 L169.076,198.056 L170.224,198.767 L172.427,195.213 L176.918,195.213 L176.918,193.863 L176.844,195.211 C176.864,195.213 177.038,195.222 177.314,195.222 C177.947,195.217 179.09,195.186 180.242,194.838 C180.818,194.658 181.417,194.4 181.949,193.916 C182.214,193.674 182.456,193.367 182.626,193 C182.798,192.635 182.889,192.215 182.888,191.794 C182.887,191.178 182.709,190.574 182.408,189.969 C182.179,189.511 181.713,189.223 181.2,189.223 L181.2,190.573 L179.993,191.176 C180.161,191.513 180.189,191.717 180.188,191.794 L180.179,191.861 C180.176,191.868 180.138,191.939 179.962,192.043 C179.706,192.2 179.195,192.353 178.677,192.426 C178.159,192.504 177.635,192.522 177.314,192.522 C177.206,192.522 177.121,192.519 177.065,192.518 L177.003,192.516 L176.991,192.516 L176.981,192.698 L176.992,192.516 L176.991,192.516 L176.981,192.698 L176.992,192.516 L176.918,192.513 L171.676,192.513 C171.207,192.513 170.776,192.753 170.528,193.152 L167.929,197.344 C167.762,197.614 167.695,197.936 167.741,198.251 C167.746,198.283 167.835,198.893 168.048,199.725 C168.265,200.561 168.592,201.615 169.144,202.586 L169.142,202.584 C169.524,203.25 169.843,204.087 170.051,204.739 C170.155,205.065 170.234,205.347 170.285,205.544 C170.311,205.642 170.33,205.719 170.342,205.77 L170.356,205.825 L170.358,205.837 L171.676,205.544 L172.222,204.309 L168.612,202.714 L166.976,198.942 L169.969,191.923 L181.2,191.923 L181.2,190.573 L179.993,191.176 L181.2,190.573" fill="#1A1919" id="path188714"/>
    <path d="M185.06,193.521 L172.931,193.521 L169.367,201.895 L171.449,206.683 L175.532,208.497 C175.532,208.497 175.073,206.462 174.17,204.869 C173.264,203.277 172.931,201.009 172.931,201.009 L175.532,196.812 L180.779,196.812 C180.779,196.812 186.875,197.149 185.06,193.521" fill="#F7F1D6" id="path188716"/>
    <path d="M185.06,193.521 L185.06,192.171 L172.931,192.171 C172.389,192.171 171.902,192.493 171.689,192.992 L168.125,201.367 C167.979,201.708 167.981,202.093 168.129,202.434 L170.212,207.222 C170.347,207.534 170.591,207.779 170.902,207.917 L174.983,209.731 C175.451,209.939 175.992,209.865 176.387,209.541 C176.784,209.216 176.961,208.7 176.849,208.2 C176.842,208.172 176.719,207.628 176.474,206.867 C176.228,206.105 175.867,205.128 175.346,204.204 L175.343,204.201 C174.987,203.581 174.695,202.704 174.518,202.006 C174.429,201.657 174.365,201.35 174.323,201.135 C174.303,201.027 174.288,200.943 174.278,200.887 L174.269,200.826 L174.267,200.813 L172.931,201.009 L174.079,201.72 L176.282,198.162 L180.779,198.162 L180.779,196.812 L180.704,198.16 C180.725,198.16 180.898,198.17 181.175,198.17 C181.807,198.165 182.949,198.134 184.102,197.786 C184.678,197.605 185.276,197.347 185.809,196.862 C186.073,196.62 186.315,196.313 186.485,195.946 C186.656,195.581 186.748,195.161 186.746,194.74 C186.746,194.124 186.568,193.521 186.269,192.918 C186.04,192.46 185.573,192.171 185.06,192.171 L185.06,193.521 L183.852,194.122 C184.02,194.459 184.048,194.664 184.046,194.74 L184.037,194.808 C184.034,194.816 183.996,194.886 183.82,194.992 C183.565,195.147 183.054,195.3 182.537,195.374 C182.018,195.452 181.496,195.47 181.175,195.47 C181.067,195.47 180.98,195.468 180.925,195.466 L180.864,195.464 L180.852,195.463 L180.846,195.576 L180.853,195.463 L180.852,195.463 L180.846,195.576 L180.853,195.463 L180.779,195.462 L175.532,195.462 C175.062,195.462 174.631,195.702 174.384,196.101 L171.784,200.298 C171.617,200.568 171.55,200.89 171.596,201.204 C171.601,201.237 171.69,201.845 171.903,202.677 C172.12,203.511 172.448,204.564 172.997,205.537 L172.996,205.534 C173.375,206.202 173.695,207.04 173.903,207.693 C174.009,208.02 174.089,208.303 174.14,208.5 C174.167,208.599 174.185,208.675 174.198,208.726 L174.212,208.782 L174.215,208.794 L175.532,208.497 L176.079,207.264 L172.478,205.663 L170.837,201.889 L173.824,194.871 L185.06,194.871 L185.06,193.521 L183.852,194.122 L185.06,193.521" fill="#1A1919" id="path188718"/>
    <path d="M181.548,195.561 L174.629,199.875 L176.918,205.544 L179.834,208.033 C179.834,208.033 180.752,205.544 179.387,203.957 C178.025,202.37 179.165,201.009 179.165,201.009 L183.911,196.421 C183.911,196.421 185.288,194.312 181.548,195.561" fill="#F7F1D6" id="path188720"/>
    <path d="M181.548,195.561 L180.834,194.416 L173.915,198.729 C173.357,199.077 173.132,199.772 173.377,200.38 L175.666,206.049 C175.746,206.247 175.879,206.432 176.042,206.571 L178.958,209.06 C179.294,209.347 179.747,209.451 180.176,209.339 C180.604,209.227 180.948,208.915 181.101,208.5 C181.128,208.413 181.48,207.484 181.486,206.217 C181.485,205.745 181.433,205.222 181.274,204.68 C181.115,204.139 180.84,203.577 180.41,203.077 L180.411,203.078 C180.091,202.691 180.076,202.494 180.068,202.33 C180.066,202.195 180.109,202.059 180.157,201.96 L180.215,201.858 L180.221,201.849 L179.653,201.418 L180.199,201.876 L180.221,201.849 L179.653,201.418 L180.199,201.876 L179.165,201.009 L180.103,201.979 L184.849,197.391 C184.919,197.324 184.988,197.241 185.041,197.159 C185.066,197.119 185.16,196.975 185.265,196.742 C185.365,196.507 185.499,196.195 185.508,195.699 C185.508,195.497 185.479,195.257 185.378,195.001 C185.303,194.811 185.185,194.616 185.031,194.45 C184.801,194.199 184.503,194.03 184.222,193.939 C183.938,193.846 183.663,193.816 183.387,193.816 C182.744,193.82 182.054,193.972 181.12,194.281 C181.027,194.313 180.917,194.365 180.834,194.416 L181.548,195.561 L181.977,196.842 C182.75,196.579 183.235,196.511 183.387,196.516 L183.433,196.517 L183.48,196.121 L183.321,196.482 C183.396,196.514 183.433,196.517 183.433,196.517 L183.48,196.121 L183.321,196.482 L183.672,195.686 L182.927,196.118 C183.025,196.296 183.211,196.438 183.321,196.482 L183.672,195.686 L182.927,196.118 L183.647,195.699 L182.808,195.699 C182.807,195.78 182.825,195.94 182.927,196.118 L183.647,195.699 L182.808,195.699 L183.194,195.699 L182.819,195.596 C182.819,195.598 182.809,195.622 182.808,195.699 L183.194,195.699 L182.819,195.596 L182.788,195.667 L182.771,195.697 L183.445,196.117 L182.78,195.684 L182.771,195.697 L183.445,196.117 L182.78,195.684 L183.911,196.421 L182.972,195.451 L178.226,200.038 L178.13,200.142 C178.077,200.205 177.902,200.421 177.725,200.788 C177.549,201.153 177.368,201.678 177.368,202.33 C177.359,203.109 177.663,204.035 178.361,204.836 L178.362,204.837 C178.514,205.014 178.614,205.21 178.685,205.446 C178.754,205.679 178.786,205.947 178.786,206.217 C178.787,206.581 178.728,206.941 178.669,207.199 C178.64,207.327 178.61,207.43 178.59,207.495 L178.568,207.563 L178.565,207.574 L179.088,207.758 L178.568,207.567 L178.565,207.574 L179.088,207.758 L178.568,207.567 L179.834,208.033 L180.711,207.007 L178.046,204.732 L176.306,200.421 L182.262,196.708 L181.548,195.561 L181.977,196.842 L181.548,195.561" fill="#1A1919" id="path188722"/>
    <path d="M194.823,172.854 L195.123,173.073 L194.824,172.852 L194.823,172.854 L195.123,173.073 L194.824,172.852 C194.806,172.88 193.788,174.241 192.152,175.548 C191.336,176.202 190.367,176.84 189.307,177.306 C188.246,177.773 187.102,178.068 185.896,178.068 C185.758,178.068 185.619,178.064 185.478,178.056 L185.48,178.056 C185.068,178.032 184.661,178.02 184.258,178.02 C181.314,178.017 178.638,178.667 176.085,179.883 C173.528,181.099 171.09,182.86 168.488,185.086 C167.922,185.571 167.856,186.423 168.341,186.99 C168.826,187.556 169.678,187.622 170.245,187.137 C172.746,184.994 175.004,183.384 177.244,182.322 C179.486,181.26 181.703,180.723 184.258,180.72 C184.607,180.72 184.963,180.731 185.325,180.752 L185.328,180.752 C185.517,180.762 185.707,180.768 185.896,180.768 C187.572,180.768 189.112,180.351 190.459,179.749 C192.481,178.844 194.089,177.531 195.212,176.445 C196.334,175.358 196.969,174.492 197.003,174.447 C197.443,173.845 197.311,173.001 196.71,172.56 C196.108,172.12 195.263,172.252 194.824,172.854" fill="#1A1919" id="path188724"/>
    <path d="M156.265,88.662 C156.279,88.671 162.206,92.639 166.695,95.195 C167.342,95.564 168.167,95.337 168.535,94.689 C168.904,94.041 168.679,93.217 168.031,92.848 C165.859,91.612 163.284,90 161.261,88.701 C160.249,88.052 159.374,87.48 158.753,87.072 C158.442,86.867 158.195,86.703 158.026,86.591 C157.856,86.479 157.766,86.418 157.766,86.418 C157.147,86.004 156.308,86.17 155.893,86.79 C155.479,87.41 155.645,88.248 156.266,88.662" fill="#1A1919" id="path188726"/>
    <path d="M181.323,133.36 L181.317,133.389 C181.247,133.72 180.538,136.906 179.107,140.38 C178.394,142.115 177.499,143.921 176.441,145.466 C175.384,147.014 174.163,148.285 172.861,149.02 L172.862,149.02 C169.659,150.832 166.595,152.507 164.333,153.727 C163.201,154.337 162.27,154.834 161.623,155.178 C160.976,155.522 160.614,155.711 160.613,155.712 C159.953,156.058 159.698,156.874 160.045,157.534 C160.391,158.195 161.207,158.449 161.868,158.103 C161.875,158.099 167.742,155.02 174.192,151.369 L174.194,151.368 C176.063,150.302 177.553,148.65 178.785,146.82 C180.627,144.067 181.9,140.867 182.737,138.336 C183.571,135.805 183.959,133.946 183.966,133.911 C184.118,133.181 183.65,132.466 182.92,132.315 C182.19,132.163 181.475,132.631 181.324,133.36" fill="#1A1919" id="path188728"/>
    <path d="M129.985,133.225 C129.997,133.297 130.22,134.725 130.982,136.564 C131.747,138.396 133.052,140.671 135.326,142.323 L135.324,142.321 C137.183,143.674 138.281,144.936 138.981,146.205 C139.679,147.474 140,148.792 140.17,150.34 C140.25,151.081 140.916,151.617 141.658,151.536 C142.399,151.455 142.934,150.789 142.854,150.048 C142.665,148.3 142.268,146.573 141.346,144.903 C140.427,143.231 139.008,141.658 136.911,140.137 L136.909,140.136 C135.212,138.913 134.118,137.082 133.475,135.528 C133.154,134.755 132.944,134.057 132.818,133.563 C132.755,133.315 132.712,133.119 132.686,132.988 L132.659,132.844 L132.653,132.813 L132.653,132.812 C132.539,132.075 131.849,131.57 131.112,131.685 C130.375,131.799 129.871,132.489 129.985,133.225" fill="#1A1919" id="path188730"/>
    <path d="M140.191,264.171 C140.189,264.181 136.558,281.508 132.926,302.577 C131.11,313.111 129.293,324.581 127.928,335.296 C126.565,346.014 125.651,355.968 125.651,363.528 C125.651,366.308 125.774,368.766 126.053,370.843 C126.337,372.923 126.755,374.618 127.463,375.939 C127.819,376.595 128.638,376.838 129.293,376.483 C129.95,376.128 130.193,375.309 129.838,374.653 C129.385,373.833 128.979,372.383 128.729,370.483 C128.472,368.582 128.35,366.226 128.351,363.528 C128.349,356.178 129.25,346.292 130.607,335.637 C132.642,319.65 135.699,301.914 138.247,288.181 C139.522,281.315 140.669,275.449 141.497,271.301 C141.911,269.227 142.245,267.582 142.475,266.456 C142.706,265.33 142.833,264.727 142.833,264.725 C142.986,263.995 142.518,263.28 141.788,263.128 C141.059,262.974 140.343,263.442 140.191,264.171" fill="#1A1919" id="path188732"/>
    <path d="M168.921,387.162 L168.92,387.161 C168.837,387.107 166.478,385.524 163.822,382.602 C161.161,379.678 158.218,375.428 156.87,370.042 L156.871,370.045 C155.463,364.383 154.207,356.413 153.31,347.047 C152.412,337.68 151.869,326.908 151.869,315.6 C151.869,314.855 151.265,314.251 150.519,314.251 C149.773,314.251 149.169,314.855 149.169,315.6 C149.169,326.995 149.716,337.845 150.623,347.305 C151.53,356.767 152.795,364.831 154.25,370.696 L154.251,370.699 C155.772,376.756 159.065,381.416 161.96,384.567 C164.859,387.719 167.374,389.375 167.439,389.419 C168.062,389.828 168.898,389.655 169.309,389.031 C169.717,388.408 169.544,387.571 168.922,387.162" fill="#1A1919" id="path188734"/>
    <path d="M224.807,293.525 L224.807,293.526 C224.887,293.685 229.825,303.525 229.825,321.892 C229.825,325.537 229.631,329.519 229.165,333.828 C227.726,347.152 226.603,356.151 225.84,361.813 C225.458,364.644 225.167,366.642 224.972,367.929 C224.873,368.572 224.8,369.038 224.751,369.342 C224.726,369.494 224.708,369.605 224.696,369.678 C224.684,369.75 224.678,369.783 224.678,369.783 C224.551,370.517 225.044,371.216 225.779,371.343 C226.513,371.469 227.212,370.977 227.339,370.242 C227.345,370.203 228.967,360.807 231.849,334.119 C232.325,329.712 232.526,325.633 232.526,321.892 C232.526,302.736 227.288,292.443 227.21,292.293 C226.869,291.63 226.056,291.368 225.392,291.708 C224.729,292.048 224.467,292.862 224.807,293.525" fill="#1A1919" id="path188736"/>
    <path d="M160.286,126.711 C160.286,126.711 164.352,122.841 164.726,120.204 C165.506,114.577 162.305,104.083 160.286,102.164 C157.332,99.358 150.377,96.985 145.051,99.648 C139.725,102.312 136.307,111.334 136.334,119.313 C136.334,122.292 140.468,126.711 140.468,126.711 L142.24,134.4 C142.24,134.4 145.203,138.555 150.392,138.555 C155.107,138.555 156.737,136.567 157.332,135.387 C157.918,134.205 160.286,126.711 160.286,126.711" fill="#F7F1D6" id="path188738"/>
    <path d="M160.286,126.711 L161.216,127.689 C161.24,127.665 162.288,126.669 163.409,125.302 C163.97,124.618 164.551,123.84 165.036,123.021 C165.518,122.196 165.922,121.341 166.063,120.393 L166.064,120.389 C166.156,119.721 166.195,119.016 166.195,118.283 C166.191,115.167 165.478,111.491 164.537,108.303 C164.066,106.71 163.536,105.245 162.991,104.035 C162.718,103.428 162.441,102.885 162.155,102.412 C161.866,101.938 161.579,101.535 161.215,101.185 C160.022,100.056 158.389,99.072 156.5,98.337 C154.612,97.608 152.466,97.137 150.266,97.136 C148.311,97.136 146.305,97.512 144.447,98.441 C142.899,99.216 141.553,100.412 140.395,101.865 C138.657,104.049 137.322,106.827 136.401,109.837 C135.483,112.848 134.984,116.093 134.983,119.221 L134.984,119.345 L136.333,119.313 L134.984,119.313 C134.99,120.371 135.324,121.356 135.755,122.295 C136.411,123.699 137.332,125.002 138.094,125.985 C138.857,126.965 139.462,127.613 139.482,127.634 L140.468,126.711 L139.153,127.014 L140.924,134.703 C140.965,134.878 141.036,135.038 141.141,135.184 C141.196,135.259 142.012,136.398 143.562,137.559 C145.105,138.715 147.427,139.906 150.392,139.906 C152.936,139.908 154.786,139.364 156.103,138.57 C157.421,137.781 158.158,136.755 158.537,135.994 L158.542,135.986 C158.656,135.753 158.76,135.492 158.889,135.154 C159.331,133.989 159.995,132 160.557,130.277 C161.118,128.558 161.572,127.121 161.572,127.118 L160.286,126.711 L161.216,127.689 L160.286,126.711 L158.998,126.305 C158.998,126.306 158.851,126.77 158.62,127.489 C158.275,128.567 157.743,130.212 157.245,131.691 C156.996,132.431 156.755,133.129 156.553,133.688 C156.451,133.967 156.36,134.212 156.284,134.404 C156.209,134.595 156.145,134.742 156.122,134.787 L156.127,134.779 C155.91,135.199 155.535,135.757 154.711,136.257 C153.885,136.753 152.564,137.204 150.392,137.205 C148.169,137.205 146.414,136.318 145.178,135.396 C144.565,134.938 144.09,134.475 143.777,134.135 C143.62,133.965 143.503,133.826 143.43,133.734 L143.352,133.634 L143.337,133.614 L143.336,133.612 L142.699,134.072 L143.339,133.617 L143.336,133.612 L142.699,134.072 L143.339,133.617 L142.24,134.4 L143.555,134.097 L141.784,126.409 C141.73,126.178 141.615,125.961 141.454,125.789 L141.447,125.782 C141.352,125.681 140.356,124.591 139.416,123.225 C138.946,122.543 138.492,121.792 138.173,121.089 C137.848,120.387 137.678,119.732 137.684,119.313 L137.684,119.281 L137.683,119.221 C137.68,115.436 138.505,111.355 139.945,107.974 C140.663,106.283 141.533,104.768 142.506,103.549 C143.479,102.326 144.55,101.407 145.654,100.856 C147.074,100.146 148.653,99.836 150.266,99.836 C152.076,99.835 153.919,100.233 155.526,100.855 C157.132,101.475 158.503,102.328 159.355,103.143 C159.443,103.222 159.637,103.462 159.844,103.809 C160.215,104.419 160.652,105.351 161.072,106.458 C161.707,108.122 162.32,110.189 162.766,112.285 C163.215,114.38 163.496,116.512 163.495,118.283 C163.495,118.917 163.46,119.503 163.388,120.019 L163.389,120.014 C163.343,120.385 163.098,121.002 162.712,121.646 C162.138,122.619 161.287,123.668 160.586,124.446 C160.236,124.837 159.923,125.163 159.701,125.39 C159.589,125.503 159.501,125.591 159.441,125.65 L159.374,125.715 L159.355,125.733 C159.189,125.892 159.067,126.087 158.998,126.305 L160.286,126.711" fill="#1A1919" id="path188740"/>
    <path d="M160.517,113.412 C161.562,116.249 160.982,119.07 159.21,119.719 C157.449,120.368 155.181,118.596 154.132,115.758 C153.093,112.922 153.673,110.1 155.44,109.452 C157.196,108.803 159.479,110.575 160.517,113.412" fill="#1A1919" id="path188742"/>
    <path d="M141.264,113.069 C139.93,115.774 140.199,118.648 141.871,119.481 C143.553,120.32 146.011,118.806 147.365,116.101 C148.699,113.396 148.436,110.522 146.754,109.683 C145.061,108.85 142.609,110.364 141.264,113.069" fill="#1A1919" id="path188744"/>
    <path d="M140.832,128.31 C140.832,128.31 143.426,130.704 146.243,131.152 C149.043,131.595 155.703,131.152 155.703,131.152 L159.953,128.31 L159.02,132.675 L142.24,132.675 L140.832,128.31" fill="#1A1919" id="path188746"/>
  </g>
</svg>
