<?xml version="1.0" encoding="utf-8"?>
<!-- Generator: Adobe Illustrator 16.0.0, SVG Export Plug-In . SVG Version: 6.00 Build 0)  -->
<!DOCTYPE svg PUBLIC "-//W3C//DTD SVG 1.1//EN" "http://www.w3.org/Graphics/SVG/1.1/DTD/svg11.dtd">
<svg version="1.1" id="reaper" xmlns="http://www.w3.org/2000/svg" xmlns:xlink="http://www.w3.org/1999/xlink" x="0px" y="0px"
	 width="510px" height="450px" viewBox="0 0 510 450" enable-background="new 0 0 510 450" xml:space="preserve">
<g id="parts">
	<polygon fill-rule="evenodd" clip-rule="evenodd" fill="#B5B5C8" points="238.283,123.038 241.205,159.852 254.254,173.875 
		258.344,190.432 277.044,213.611 301.001,236.4 318.531,230.751 306.652,201.145 302.56,185.563 277.435,116.026 257.957,105.703 
		238.283,123.038 238.283,123.038 	"/>
	<polygon fill-rule="evenodd" clip-rule="evenodd" fill="#FF0000" points="156.865,217.312 198.548,438.193 201.08,429.232 
		212.183,436.438 205.17,443.646 216.273,443.646 213.74,420.272 170.694,217.312 156.865,217.312 156.865,217.312 	"/>
	<polygon fill-rule="evenodd" clip-rule="evenodd" fill="#B5B5C8" points="20.13,254.515 32.596,226.077 64.345,183.225 
		111.287,138.816 138.945,124.401 119.662,160.242 97.457,186.731 74.083,206.404 57.333,213.611 50.516,238.542 26.947,267.175 
		20.13,254.515 20.13,254.515 	"/>
	<polygon fill-rule="evenodd" clip-rule="evenodd" fill="#B20000" points="7.664,311.584 13.118,270.681 24.22,242.244 
		31.232,258.214 31.232,235.036 36.491,247.502 38.049,226.077 42.14,229.583 46.425,238.542 49.151,220.817 51.879,224.324 
		57.333,204.651 65.514,206.404 71.357,195.886 78.174,195.886 97.457,179.719 71.357,217.312 61.617,217.312 62.981,231.53 
		45.062,259.969 36.491,277.887 29.869,275.941 32.596,295.614 16.039,334.959 7.664,311.584 7.664,311.584 	"/>
	<polygon fill-rule="evenodd" clip-rule="evenodd" fill="#FFEA00" points="133.492,110.182 144.594,103.171 152.774,108.429 
		172.058,213.611 166.604,224.324 155.502,218.87 138.945,156.54 134.66,122.844 133.492,110.182 133.492,110.182 	"/>
	<polygon fill-rule="evenodd" clip-rule="evenodd" fill="#B20000" points="342.296,8.702 333.725,12.208 297.689,8.702 
		237.115,28.181 213.74,28.181 203.807,38.894 213.74,55.06 253.866,87.004 278.603,124.401 299.249,172.512 322.623,233.089 
		295.16,235.036 274.318,208.157 250.944,188.679 237.115,129.855 242.763,83.498 209.65,58.566 210.819,119.337 226.012,153.034 
		226.012,188.679 224.843,215.364 194.263,331.257 212.183,411.508 216.273,388.523 214.909,429.232 223.285,386.575 
		228.934,434.492 232.829,398.847 245.295,432.932 248.216,409.753 255.034,430.986 266.138,400.794 275.875,441.699 
		285.42,432.932 315.807,423.973 308.989,434.492 327.103,438.193 354.566,441.699 377.94,429.232 415.534,420.272 380.86,438.193 
		441.633,423.973 397.418,441.699 455.463,430.986 499.678,430.986 506.495,420.272 480.393,420.272 503.962,415.014 
		477.668,409.753 492.861,397.288 470.851,317.04 411.052,165.5 380.86,129.855 380.86,119.337 371.318,106.677 353.202,99.47 
		340.736,71.032 344.829,21.168 342.296,8.702 342.296,8.702 	"/>
	<polygon fill-rule="evenodd" clip-rule="evenodd" fill="#FF0000" points="239.841,236.791 234.193,347.229 237.115,388.523 
		245.295,368.85 241.205,359.889 245.295,343.723 238.478,336.517 242.763,324.246 238.478,317.04 241.205,306.521 239.841,299.315 
		243.932,286.653 239.841,281.394 243.932,268.733 242.763,263.669 242.763,251.008 241.205,220.817 239.841,236.791 
		239.841,236.791 	"/>
	<polygon fill-rule="evenodd" clip-rule="evenodd" fill="#FF0000" points="230.103,218.87 210.819,345.671 208.092,375.862 
		196.989,327.751 216.273,245.75 230.103,218.87 230.103,218.87 	"/>
	<polygon fill-rule="evenodd" clip-rule="evenodd" fill="#FF0000" points="344.829,217.312 344.829,283.148 350.477,345.671 
		362.747,411.508 377.94,393.586 368.396,393.586 376.771,379.369 368.396,383.068 376.771,367.097 364.307,372.163 
		375.407,354.436 358.658,361.644 376.771,342.167 357.489,347.229 371.318,329.504 354.566,334.959 368.396,315.287 
		355.93,318.792 365.67,304.573 354.566,306.521 362.747,292.107 348.918,295.614 358.658,279.642 350.477,283.148 357.489,265.227 
		350.477,263.669 355.93,249.255 351.646,249.255 353.202,235.036 350.477,233.089 347.749,222.571 348.918,208.157 
		344.829,217.312 344.829,217.312 	"/>
	<polygon fill-rule="evenodd" clip-rule="evenodd" fill="#FF0000" points="206.729,40.646 214.909,44.347 238.478,62.072 
		271.591,101.418 295.16,151.281 308.989,177.966 310.351,190.432 327.103,231.53 333.725,202.898 328.271,263.669 333.725,408.001 
		335.284,422.22 331.191,416.765 324.18,317.04 315.807,229.583 303.533,190.432 297.689,165.5 273.15,119.337 228.934,69.279 
		219,115.637 223.285,62.072 213.74,56.813 214.909,117.39 228.934,153.034 232.829,192.185 226.012,176.019 223.285,153.034 
		208.092,119.337 208.092,51.359 199.717,37.14 210.819,26.427 228.934,28.181 238.478,47.853 220.364,29.934 238.478,55.06 
		212.183,35.387 206.729,40.646 206.729,40.646 	"/>
	<polygon fill-rule="evenodd" clip-rule="evenodd" fill="#FF0000" points="273.15,277.887 278.603,375.862 285.42,368.85 
		278.603,283.148 273.15,277.887 273.15,277.887 	"/>
	<polygon fill-rule="evenodd" clip-rule="evenodd" fill="#FF0000" points="288.34,286.653 291.068,333.01 299.249,327.751 
		296.521,281.394 288.34,286.653 288.34,286.653 	"/>
	<polygon fill-rule="evenodd" clip-rule="evenodd" fill="#FFFFFF" points="244.321,136.867 246.854,149.139 253.866,151.476 
		262.632,153.424 264.969,156.735 261.851,176.603 268.476,173.291 269.253,150.697 264.969,151.865 267.111,129.271 
		263.605,135.699 249.581,136.283 244.321,136.867 244.321,136.867 	"/>
	<polygon fill-rule="evenodd" clip-rule="evenodd" fill="#FFFFFF" points="147.321,160.242 160.956,220.817 154.139,218.87 
		138.945,158.293 147.321,160.242 147.321,160.242 	"/>
	<polygon fill-rule="evenodd" clip-rule="evenodd" fill="#FFFFFF" points="131.933,110.182 133.492,120.896 101.743,142.322 
		64.345,176.019 40.776,210.104 24.22,233.089 18.766,258.214 36.491,220.817 65.514,185.173 114.208,140.374 140.309,126.35 
		140.309,110.182 131.933,110.182 131.933,110.182 	"/>
	<polygon fill-rule="evenodd" clip-rule="evenodd" fill="#FFFFFF" points="270.031,173.875 273.342,172.707 274.123,181.277 
		271.2,181.862 269.253,175.824 270.031,173.875 270.031,173.875 	"/>
	<polygon fill-rule="evenodd" clip-rule="evenodd" fill="#FFFFFF" points="276.266,172.707 279.576,171.733 281.523,181.277 
		278.407,182.835 276.656,177.187 276.266,172.707 276.266,172.707 	"/>
	<polygon fill-rule="evenodd" clip-rule="evenodd" fill="#FFFFFF" points="282.496,171.149 287.563,170.175 291.264,178.55 
		284.834,181.862 282.496,171.149 282.496,171.149 	"/>
	<polygon fill-rule="evenodd" clip-rule="evenodd" fill="#FFFFFF" points="291.654,167.837 290.29,169.59 294.184,177.577 
		291.654,167.837 291.654,167.837 	"/>
	<polygon fill-rule="evenodd" clip-rule="evenodd" fill="#FFFFFF" points="274.123,188.289 277.435,193.548 279.576,194.912 
		278.993,188.289 274.123,188.289 274.123,188.289 	"/>
	<polygon fill-rule="evenodd" clip-rule="evenodd" fill="#FFFFFF" points="281.136,187.705 285.811,195.886 287.563,186.537 
		281.136,187.705 281.136,187.705 	"/>
	<polygon fill-rule="evenodd" clip-rule="evenodd" fill="#FFFFFF" points="292.042,194.328 291.264,186.147 297.303,192.575 
		292.042,194.328 292.042,194.328 	"/>
	<polygon fill-rule="evenodd" clip-rule="evenodd" fill="#FFFFFF" points="295.353,182.835 299.835,191.601 300.223,181.277 
		295.353,182.835 295.353,182.835 	"/>
	<polygon fill-rule="evenodd" clip-rule="evenodd" fill="#FFFFFF" points="272.564,198.613 285.811,209.13 291.654,208.742 
		270.031,194.328 264.188,181.862 269.644,196.275 272.564,198.613 272.564,198.613 	"/>
	<polygon fill-rule="evenodd" clip-rule="evenodd" points="203.807,35.972 208.092,31.491 212.572,28.959 220.168,28.959 
		228.934,28.959 237.503,28.959 250.554,26.038 270.031,19.026 301.587,12.014 314.638,12.014 328.854,13.377 336.257,13.377 
		333.142,17.467 333.142,23.311 338.595,28.959 333.142,28.959 337.426,33.05 329.831,34.413 335.284,41.425 327.686,42.594 
		331.973,48.438 326.325,49.606 331.973,55.45 326.325,56.813 328.854,62.267 324.375,65.188 328.854,69.474 325.544,73.564 
		327.686,76.486 323.206,81.745 321.064,93.042 321.064,101.612 327.686,97.522 322.232,108.429 331,102.781 322.232,118.169 
		329.831,114.078 322.232,126.739 328.854,123.817 323.206,135.114 329.831,130.829 324.375,140.763 329.831,140.763 
		325.544,149.139 331.973,149.139 325.544,160.242 331,161.605 329.831,168.422 331,172.707 331.973,179.719 333.142,164.331 
		331.973,151.865 333.142,139.205 334.115,126.739 334.115,112.715 334.115,97.522 343.853,109.988 336.257,86.03 347.166,105.703 
		341.515,84.667 350.477,102.781 355.734,95.964 350.477,80.576 348.335,58.176 349.504,38.503 350.477,20.389 346.189,5.001 
		338.595,6.365 331.973,9.287 302.755,9.287 279.967,12.014 239.841,26.038 226.596,26.038 211.598,26.038 206.145,28.959 
		199.522,34.413 200.691,35.972 203.807,35.972 203.807,35.972 	"/>
	<polygon fill-rule="evenodd" clip-rule="evenodd" points="355.734,94.406 379.887,98.69 380.86,102.781 379.887,108.429 
		390.601,116.806 393.911,123.817 394.885,129.271 393.911,136.479 410.078,160.242 426.44,185.368 441.633,217.507 
		456.826,255.099 467.732,294.25 478.642,343.335 472.02,368.461 487.213,350.542 474.357,383.849 485.263,369.825 478.642,390.86 
		486.236,388.133 479.615,399.43 472.993,413.259 478.642,394.951 475.331,397.873 476.304,385.406 464.422,399.43 474.357,372.746 
		457.8,390.86 462.279,375.473 457.8,376.837 460.138,358.72 453.711,365.733 456.826,343.335 449.229,347.62 451.374,336.323 
		442.802,343.335 447.086,326.583 436.181,333.595 444.944,313.922 434.23,325.218 442.802,304.183 431.893,313.922 
		438.518,298.536 427.608,306.91 435.207,288.991 425.271,295.809 432.869,277.694 422.156,284.705 428.582,269.124 
		419.037,274.967 423.324,258.021 413.389,266.591 416.703,242.634 413.389,225.881 405.794,204.845 392.743,175.434 
		381.837,153.229 376.381,146.217 369.954,147.775 361.188,155.956 353.788,178.356 343.853,210.495 343.853,195.301 
		347.166,188.094 346.189,182.446 348.335,181.277 346.189,174.265 351.45,174.265 349.504,167.253 353.788,167.253 351.45,158.877 
		357.099,158.877 354.762,150.308 358.072,151.865 357.099,144.854 361.188,143.295 359.046,135.114 364.693,137.841 
		363.333,130.829 368.981,132.192 368.008,123.817 372.292,125.181 371.123,119.727 375.407,120.896 373.266,111.157 
		357.099,130.829 349.504,144.854 343.853,158.877 340.541,169.98 343.074,149.139 345.021,136.479 343.853,130.829 
		347.166,132.192 346.189,125.181 351.45,126.739 349.504,119.727 355.734,120.896 351.45,114.078 343.853,115.441 354.762,101.612 
		349.504,97.522 355.734,94.406 355.734,94.406 	"/>
	<polygon fill-rule="evenodd" clip-rule="evenodd" points="368.981,165.89 374.238,151.865 401.51,251.008 398.199,272.043 
		408.131,258.021 400.341,281.785 406.963,272.043 410.078,273.603 394.885,306.91 393.911,298.536 398.199,287.432 
		397.223,281.785 389.627,293.081 390.601,283.148 393.911,276.136 394.885,269.124 389.627,274.967 388.459,263.669 
		392.743,252.567 387.485,252.567 390.601,242.634 387.485,243.997 389.627,236.984 386.316,236.984 389.627,228.61 384.175,228.61 
		387.485,218.87 380.86,218.87 384.175,209.13 378.719,209.13 381.837,200.756 375.407,200.756 377.55,191.016 374.238,189.458 
		376.381,179.719 372.292,175.434 372.292,164.331 368.981,165.89 368.981,165.89 	"/>
	<polygon fill-rule="evenodd" clip-rule="evenodd" points="366.644,182.446 387.485,295.809 383.197,312.558 389.627,305.545 
		384.175,321.129 390.601,313.922 385.147,329.504 396.054,322.298 386.316,339.244 396.054,333.595 387.485,351.709 
		396.054,346.255 397.223,350.542 387.485,357.358 377.55,369.825 378.719,365.733 384.175,354.631 386.316,343.335 
		376.381,353.268 386.316,333.595 374.238,343.335 380.86,327.947 374.238,327.947 380.86,315.287 373.266,316.844 378.719,304.183 
		373.266,308.274 378.719,293.081 373.266,295.809 377.55,281.785 373.266,283.148 378.719,273.603 373.266,273.603 
		376.381,263.669 373.266,263.669 375.407,252.567 372.292,252.567 373.266,243.997 368.981,243.997 369.954,234.453 
		366.644,234.453 368.981,224.517 364.693,221.792 366.644,211.858 363.333,210.495 365.67,202.313 361.188,199.392 
		362.356,191.016 366.644,182.446 366.644,182.446 	"/>
	<polygon fill-rule="evenodd" clip-rule="evenodd" points="216.078,54.086 237.503,67.916 251.723,84.667 264.773,101.612 
		277.825,120.896 287.563,143.295 296.134,164.331 304.702,192.379 312.496,210.495 318.922,227.441 322.232,235.816 
		324.375,258.021 325.544,287.432 327.686,288.991 324.375,297.171 326.325,298.536 324.375,305.545 326.325,306.91 
		324.375,311.196 326.325,315.287 325.544,325.218 326.325,374.304 320.091,302.821 321.064,392.417 314.638,304.183 
		315.611,401.963 308.013,302.821 309.182,386.77 300.418,297.171 297.107,297.171 301.587,288.991 297.107,290.159 
		300.418,281.785 295.16,281.785 298.471,273.603 291.847,274.967 297.107,265.032 292.823,266.591 296.717,256.852 291.847,253.93 
		295.743,249.645 290.678,248.476 292.823,243.997 288.926,240.491 291.847,235.816 288.535,232.699 283.277,223.155 
		277.825,217.507 270.031,216.338 270.031,213.417 264.773,213.417 266.721,209.13 261.463,209.13 262.632,206.404 257.177,206.404 
		258.15,202.313 252.697,203.677 256.008,197.834 250.554,199.392 250.554,195.301 243.347,192.185 262.632,183.615 267.89,199.392 
		274.511,203.677 280.745,208.352 282.305,206.209 287.953,214.195 287.953,206.988 299.444,231.92 293.405,206.988 
		305.676,233.285 297.689,206.209 310.158,231.141 302.364,205.625 314.442,227.05 303.729,197.834 302.755,192.379 
		298.471,193.744 291.847,195.301 287.563,196.47 281.914,195.301 276.656,193.744 283.277,193.744 281.914,189.458 
		286.198,195.301 289.509,195.301 290.873,189.458 292.823,193.744 297.107,192.379 297.107,186.731 299.444,191.016 
		302.755,188.094 300.418,182.446 294.77,183.615 295.16,186.341 278.798,188.094 272.369,188.094 269.058,185.368 271.2,184.004 
		265.942,179.135 268.667,175.628 272.369,181.277 273.537,183.615 276.849,182.835 275.875,172.707 279.967,184.004 
		284.251,182.446 283.473,174.265 287.367,183.615 292.823,179.719 290.873,169.98 296.134,179.719 289.509,160.242 
		286.198,153.229 285.225,164.331 280.94,155.956 280.162,165.5 276.656,155.956 275.875,165.5 273.342,155.956 270.617,165.5 
		270.227,154.398 272.564,144.659 272.564,138.816 270.227,145.827 267.89,150.112 269.058,127.908 271.2,130.829 272.369,126.739 
		274.511,127.908 274.511,125.181 272.369,120.896 266.721,115.441 266.721,120.896 266.916,128.687 262.632,113.884 263.02,134.53 
		258.735,114.468 259.126,136.479 255.813,116.806 255.229,136.479 251.528,118.753 251.528,135.894 247.632,120.896 
		247.632,135.114 244.321,123.817 244.127,133.751 241.399,126.739 241.984,137.452 243.153,142.126 244.321,148.749 
		248.606,158.683 255.229,162.384 262.632,164.916 259.708,178.55 262.046,183.615 243.347,192.185 245.1,185.368 239.452,184.394 
		241.79,178.356 238.283,175.628 241.79,171.343 235.946,167.837 240.815,164.331 233.219,163.163 236.53,158.877 229.908,155.956 
		234.777,151.671 228.934,149.139 232.634,143.685 225.623,140.763 232.245,137.452 223.285,135.114 231.661,129.661 
		222.311,126.739 232.245,120.896 222.701,117.39 233.219,112.52 223.285,109.988 233.803,105.313 223.285,101.612 234.777,98.301 
		224.648,93.042 235.556,91.094 224.648,84.667 235.946,85.251 226.596,74.927 224.648,69.474 222.311,69.474 220.364,115.441 
		217.831,98.301 216.078,93.237 218.415,88.952 211.598,86.03 218.805,83.304 212.572,80.576 219.389,76.875 211.598,74.927 
		219.974,70.448 211.598,67.916 217.831,62.657 209.261,62.267 206.729,62.657 204.976,48.438 194.652,40.646 201.08,33.634 
		207.313,43.568 216.078,54.086 216.078,54.086 	"/>
	<polygon fill-rule="evenodd" clip-rule="evenodd" points="206.145,65.188 208.092,77.849 209.261,88.952 209.261,100.055 
		209.261,108.429 208.092,115.441 209.261,122.649 212.572,132.192 217.052,142.126 221.337,153.229 224.648,164.331 
		224.648,178.356 225.623,188.094 227.765,193.744 219,213.417 208.092,246.723 201.664,274.967 195.236,301.458 190.757,318.208 
		200.691,361.644 215.883,277.694 223.285,243.997 229.908,220.233 233.219,210.495 236.53,217.507 234.193,227.441 
		233.219,245.554 233.219,258.021 226.596,256.657 229.908,263.669 225.623,262.307 229.908,273.603 225.623,272.043 
		229.908,281.785 222.311,279.056 228.934,291.716 222.311,288.991 228.934,301.458 222.311,298.536 227.765,312.558 
		221.337,309.832 226.596,321.129 219,318.208 223.285,326.583 218.026,326.583 223.285,337.685 219,337.685 224.648,348.984 
		221.337,350.542 225.623,361.644 234.193,372.746 223.285,355.8 231.077,360.28 227.765,347.62 232.245,343.335 228.934,334.959 
		235.361,329.504 233.219,321.129 235.361,316.844 240.815,207.767 235.361,204.845 235.361,197.834 233.219,192.379 
		235.361,185.368 231.077,181.277 227.765,167.253 227.765,160.242 225.623,151.865 215.883,130.829 211.598,116.806 
		211.598,109.988 210.43,77.849 208.092,58.176 206.145,65.188 206.145,65.188 	"/>
	<polygon fill-rule="evenodd" clip-rule="evenodd" points="241.79,206.404 257.177,214.78 275.68,225.881 285.225,234.453 
		287.563,239.906 287.563,259.579 289.509,293.081 291.847,315.287 294.184,361.644 287.563,312.558 286.198,309.832 
		281.914,306.91 285.225,300.093 283.277,298.536 286.198,293.081 283.277,291.716 285.225,284.705 279.967,283.148 
		283.277,276.136 279.967,273.603 281.914,267.759 278.798,265.032 280.94,256.657 276.656,255.099 281.914,246.723 
		278.798,241.465 279.967,235.816 276.656,232.699 273.342,235.816 278.798,403.522 274.511,397.873 272.369,347.62 
		269.058,344.698 270.031,295.809 263.605,295.809 267.89,287.432 263.605,286.069 266.721,279.056 263.605,276.136 
		266.721,269.124 262.632,266.591 264.773,259.579 261.463,256.657 262.632,249.645 261.463,221.792 258.15,220.233 
		263.605,376.837 258.15,383.849 266.721,380.926 258.15,392.417 264.773,389.498 259.319,400.794 265.747,397.873 259.319,407.611 
		253.866,406.443 247.438,403.522 253.866,396.51 249.385,394.951 253.866,385.406 248.412,385.406 251.723,376.837 
		248.412,374.304 252.697,365.733 249.385,361.644 251.723,351.709 249.385,340.607 251.723,332.231 248.412,323.663 
		250.554,319.571 247.438,308.274 249.385,297.171 248.412,216.338 244.127,216.338 241.79,206.404 241.79,206.404 	"/>
	<polygon fill-rule="evenodd" clip-rule="evenodd" points="339.568,223.155 339.568,298.536 343.853,346.255 348.335,378.393 
		352.814,406.443 340.541,390.86 343.853,390.86 339.568,380.926 343.853,380.926 337.426,371.187 341.515,369.825 335.284,360.28 
		340.541,358.72 333.142,348.984 338.595,347.62 334.115,339.244 337.426,336.323 334.115,329.504 338.595,326.583 333.142,318.208 
		337.426,316.844 333.142,309.832 335.284,308.274 331,300.093 334.115,297.171 329.831,290.159 334.115,288.991 331,279.056 
		335.284,276.136 331,267.759 334.115,260.943 336.257,220.233 339.568,223.155 339.568,223.155 	"/>
	<polygon fill-rule="evenodd" clip-rule="evenodd" points="228.934,30.128 249.385,30.128 300.418,14.936 255.034,33.05 
		301.587,19.026 257.177,37.14 301.587,23.311 259.319,41.425 299.444,30.128 263.605,45.516 295.16,38.503 267.89,51.164 
		289.509,46.879 274.511,55.45 286.198,55.45 279.967,59.541 286.198,63.631 280.94,69.474 284.251,76.486 294.184,105.703 
		323.206,204.845 312.496,175.434 306.066,158.877 300.418,142.126 295.16,133.751 296.134,126.739 288.535,123.817 
		290.873,118.169 284.251,115.441 286.198,108.429 280.94,106.872 281.914,101.612 274.511,100.055 276.656,93.042 270.031,91.678 
		272.369,86.03 266.721,84.667 269.058,77.849 261.463,76.486 263.605,69.474 253.866,69.474 256.008,62.267 247.438,60.904 
		250.554,56.813 241.79,55.45 245.1,49.606 238.478,48.438 240.815,42.594 234.193,42.594 236.53,37.14 226.596,35.972 
		223.285,31.491 228.934,30.128 228.934,30.128 	"/>
	<polygon fill-rule="evenodd" clip-rule="evenodd" points="312.496,105.703 331,200.756 306.066,112.715 312.496,105.703 
		312.496,105.703 	"/>
	<polygon fill-rule="evenodd" clip-rule="evenodd" points="156.086,104.144 173.421,218.87 166.994,221.792 160.371,223.155 
		155.112,221.792 151.801,218.87 138.556,158.877 140.893,155.956 155.112,217.507 160.371,220.233 166.02,217.507 164.656,211.858 
		166.02,207.767 163.683,206.404 164.656,199.392 161.734,196.47 163.683,191.016 160.371,188.094 163.683,179.719 158.034,176.993 
		160.371,171.343 155.112,167.253 158.034,160.242 155.112,157.32 156.086,153.229 152.774,150.308 153.749,144.854 
		150.437,143.295 152.774,136.479 149.658,133.751 151.801,127.908 148.489,125.181 149.658,119.727 146.347,116.806 
		149.658,109.988 146.347,108.429 139.919,109.988 134.466,112.715 132.128,109.988 137.582,104.144 147.515,101.612 
		152.774,102.781 156.086,104.144 156.086,104.144 	"/>
	<polygon fill-rule="evenodd" clip-rule="evenodd" points="171.278,220.233 206.145,408.975 199.522,406.443 166.02,225.881 
		196.405,410.533 161.734,224.517 158.034,224.517 193.094,408.975 189.588,408.975 155.112,220.233 171.278,220.233 
		171.278,220.233 	"/>
	<polygon fill-rule="evenodd" clip-rule="evenodd" points="132.128,119.727 109.338,135.114 92.198,150.308 76.811,164.331 
		60.644,179.719 46.425,197.834 32.206,217.507 23.636,234.453 17.013,253.93 11.754,276.136 8.443,297.171 6.495,313.922 
		6.495,332.231 7.469,351.709 10.585,365.733 13.896,379.757 17.013,389.498 17.013,374.304 19.35,357.358 22.467,339.244 
		24.805,323.663 27.921,306.91 33.569,293.081 34.543,288.991 32.206,279.056 36.491,280.616 42.14,266.591 51.879,251.008 
		59.476,236.984 63.955,229.972 60.644,216.338 64.929,218.87 68.24,214.78 69.214,218.87 78.953,206.404 88.887,195.301 
		99.794,186.731 111.676,176.993 112.65,168.422 116.935,165.89 116.935,172.707 127.843,164.331 139.919,158.877 152.774,164.331 
		147.515,129.271 138.556,127.908 121.416,139.205 109.338,147.775 104.08,175.434 100.769,153.229 98.431,155.956 98.431,182.446 
		94.146,160.242 92.198,163.163 93.172,185.368 87.523,168.422 84.407,171.343 84.407,192.379 71.357,213.417 69.214,210.495 
		64.929,214.78 58.307,213.417 60.644,229.972 43.113,259.579 35.518,276.136 30.258,274.967 31.232,288.991 29.09,295.809 
		22.467,267.759 20.324,273.603 26.947,300.093 24.805,305.545 17.013,277.694 15.065,291.716 22.467,319.571 15.065,309.832 
		11.754,302.821 13.896,274.967 25.974,235.816 44.478,204.845 61.617,182.446 86.549,157.32 109.338,137.841 134.466,122.649 
		138.556,123.817 142.062,119.727 132.128,119.727 132.128,119.727 	"/>
</g>
</svg>
